<svg width="133" height="126" viewBox="0 0 133 126" fill="none" xmlns="http://www.w3.org/2000/svg">
<g clip-path="url(#clip0_949_4780)">
<path d="M25.4622 16.4795C25.1045 16.8081 25.0039 17.489 24.9297 18.1858C25.6397 18.1566 26.3524 18.1116 26.7366 17.7724C27.0969 17.4519 27.2373 16.8028 27.3486 16.1378C26.6068 16.1272 25.857 16.1298 25.4622 16.4795Z" fill="black"/>
<path d="M19.8359 23.5376C20.546 23.421 21.2613 23.2885 21.6031 22.9017C21.9263 22.5361 21.982 21.8711 22.0137 21.1929C21.2719 21.2697 20.5301 21.3624 20.1804 21.7598C19.8465 22.1361 19.828 22.8329 19.8386 23.5349L19.8359 23.5376Z" fill="black"/>
<path d="M17.9056 24.6396C17.6009 25.0184 17.6141 25.6914 17.6645 26.3776C18.2738 26.2292 18.8514 26.049 19.1296 25.6914C19.4263 25.3152 19.4502 24.666 19.4422 24.0063C18.8011 24.1203 18.1944 24.2713 17.9056 24.6396Z" fill="black"/>
<path d="M23.9729 20.2681C24.3147 19.9369 24.4127 19.2798 24.4869 18.6042C23.8325 18.6387 23.2072 18.7102 22.876 19.0414C22.529 19.3885 22.4654 20.0614 22.4336 20.7503C23.0589 20.6814 23.6576 20.5781 23.9755 20.2681H23.9729Z" fill="black"/>
<path d="M125.471 81.1542C125.606 80.7276 125.399 80.1633 125.137 79.5884C124.591 79.9593 124.074 80.3488 123.944 80.7939C123.815 81.2045 123.979 81.7556 124.194 82.3173C124.776 81.9728 125.327 81.6072 125.473 81.1542H125.471Z" fill="black"/>
<path d="M124.361 84.8527C124.56 84.3414 124.274 83.6102 123.99 82.8975C123.391 83.2472 122.809 83.6128 122.639 84.0685C122.456 84.556 122.695 85.2846 122.928 85.9893C123.561 85.6661 124.176 85.3217 124.361 84.8554V84.8527Z" fill="black"/>
<path d="M122.83 88.1275C123.013 87.7247 122.881 87.1498 122.695 86.5537C122.112 86.8557 121.556 87.179 121.365 87.6029C121.19 87.9923 121.283 88.5514 121.423 89.1342C122.046 88.8613 122.634 88.5646 122.83 88.1301V88.1275Z" fill="black"/>
<path d="M119.663 90.6867C119.411 91.1557 119.56 91.9028 119.706 92.6288C120.384 92.3824 121.057 92.1174 121.3 91.6644C121.544 91.1875 121.348 90.4244 121.152 89.6826C120.516 89.9582 119.896 90.2522 119.663 90.6867Z" fill="black"/>
<path d="M126.579 77.6967C126.706 77.1774 126.343 76.4939 125.983 75.8315C125.437 76.2501 124.907 76.682 124.793 77.1562C124.669 77.6623 124.984 78.3405 125.3 79.0002C125.89 78.6002 126.463 78.1842 126.582 77.6967H126.579Z" fill="black"/>
<path d="M36.8086 9.48771C37.5027 9.62548 38.1995 9.74471 38.642 9.50626C39.0606 9.28106 39.3494 8.69554 39.617 8.08353C38.9096 7.89807 38.1995 7.73116 37.7438 7.97491C37.3093 8.20805 37.047 8.83596 36.8086 9.48771Z" fill="black"/>
<path d="M40.1641 7.81856C40.784 7.97752 41.3934 8.09939 41.804 7.91128C42.2412 7.71258 42.5671 7.12176 42.8744 6.51505C42.2438 6.31105 41.6239 6.14943 41.2 6.34019C40.7469 6.54419 40.4449 7.1721 40.1641 7.81856Z" fill="black"/>
<path d="M28.4696 14.0766C28.0748 14.3839 27.9317 15.0569 27.8125 15.7457C28.4378 15.7484 29.0418 15.7139 29.3889 15.4331C29.7598 15.1337 29.9347 14.4926 30.0883 13.8355C29.4445 13.7958 28.8246 13.7984 28.4696 14.074V14.0766Z" fill="black"/>
<path d="M30.582 13.4727C31.3 13.5257 32.0286 13.5654 32.4499 13.2793C32.834 13.0064 33.046 12.3891 33.2341 11.7506C32.5081 11.6525 31.7716 11.5678 31.3477 11.8592C30.9318 12.1374 30.741 12.7944 30.582 13.4727Z" fill="black"/>
<path d="M33.7422 11.4165C34.3754 11.496 34.9848 11.533 35.3663 11.2893C35.7849 11.0376 36.0419 10.4229 36.2724 9.78974C35.6233 9.66522 34.9901 9.58309 34.5953 9.82683C34.1634 10.0865 33.9409 10.7435 33.7422 11.4191V11.4165Z" fill="black"/>
<path d="M43.4375 6.27931C44.1104 6.50451 44.7913 6.71117 45.2576 6.52836C45.6974 6.36409 46.0525 5.82362 46.3889 5.25134C45.7133 4.9864 45.0298 4.73471 44.5529 4.91222C44.0893 5.08178 43.7528 5.66465 43.4375 6.27931Z" fill="black"/>
<path d="M115.89 96.8783C115.594 97.3128 115.655 98.0785 115.71 98.8203C115.71 98.8203 115.71 98.823 115.71 98.8256C116.42 98.6614 117.128 98.4786 117.416 98.0573C117.737 97.6043 117.631 96.8147 117.525 96.0491C116.844 96.2504 116.169 96.4677 115.888 96.8783H115.89Z" fill="black"/>
<path d="M110.126 106.456C110.439 106.143 110.521 105.568 110.558 104.956C109.928 105.025 109.324 105.129 109.003 105.441C108.701 105.743 108.587 106.3 108.516 106.893C109.17 106.859 109.795 106.787 110.126 106.456Z" fill="black"/>
<path d="M111.395 102.596C111.04 102.999 111.006 103.767 110.977 104.514C111.71 104.437 112.444 104.342 112.794 103.95C113.16 103.536 113.146 102.742 113.136 101.973C113.136 101.973 113.136 101.971 113.136 101.968C112.436 102.085 111.734 102.217 111.398 102.599L111.395 102.596Z" fill="black"/>
<path d="M113.84 100.015C113.575 100.352 113.527 100.908 113.527 101.494C114.179 101.38 114.799 101.229 115.09 100.855C115.366 100.513 115.382 99.933 115.345 99.3184C114.72 99.4694 114.126 99.6495 113.84 100.015Z" fill="black"/>
<path d="M117.984 94.0355C117.767 94.3984 117.788 94.9548 117.854 95.5377C118.493 95.3443 119.097 95.1244 119.338 94.7296C119.566 94.3508 119.507 93.7705 119.396 93.1638C118.792 93.389 118.22 93.6381 117.981 94.0355H117.984Z" fill="black"/>
<path d="M127.37 61.1963C126.933 61.7315 126.52 62.2799 126.52 62.7753C126.52 63.2708 126.983 63.8695 127.444 64.4339C127.924 63.9066 128.374 63.3662 128.374 62.8548C128.374 62.317 127.876 61.75 127.37 61.1963Z" fill="black"/>
<path d="M124.038 42.6555C124.297 41.9931 124.536 41.3228 124.364 40.8565C124.183 40.3611 123.534 40.0114 122.875 39.6802C122.655 40.3399 122.461 40.9996 122.641 41.4553C122.816 41.9242 123.426 42.2978 124.038 42.6555Z" fill="black"/>
<path d="M127.425 65.0459C126.985 65.5334 126.574 66.0315 126.545 66.4978C126.516 66.9402 126.815 67.4436 127.168 67.947C127.655 67.4675 128.105 66.98 128.137 66.4978C128.166 66.0474 127.825 65.5466 127.427 65.0459H127.425Z" fill="black"/>
<path d="M122.83 37.3967C122.64 36.9728 122.075 36.6814 121.471 36.4138C121.304 37.0523 121.172 37.6829 121.365 38.1068C121.551 38.5148 122.078 38.8274 122.642 39.1162C122.854 38.4698 123.027 37.8312 122.83 37.3967Z" fill="black"/>
<path d="M127.924 70.326C127.993 69.7961 127.551 69.1682 127.111 68.5562C126.623 69.033 126.157 69.5232 126.094 70.008C126.027 70.53 126.404 71.1632 126.79 71.7831C127.333 71.3142 127.861 70.8293 127.924 70.3286V70.326Z" fill="black"/>
<path d="M127.239 73.9212C127.318 73.4788 127.032 72.9356 126.698 72.3872C126.205 72.8191 125.75 73.2615 125.67 73.7252C125.596 74.1597 125.829 74.6922 126.113 75.2327C126.65 74.8167 127.156 74.3875 127.239 73.9212Z" fill="black"/>
<path d="M126.093 55.5423C126.149 56.0404 126.666 56.5544 127.182 57.0525C127.598 56.4723 127.99 55.8815 127.924 55.3807C127.858 54.8508 127.307 54.3528 126.748 53.8679C126.38 54.4561 126.03 55.0522 126.093 55.5397V55.5423Z" fill="black"/>
<path d="M125.077 46.0627C125.36 45.4454 125.604 44.8307 125.469 44.3645C125.328 43.9246 124.804 43.5696 124.237 43.2332C123.998 43.8478 123.8 44.4572 123.943 44.9129C124.078 45.3394 124.56 45.7103 125.077 46.0627Z" fill="black"/>
<path d="M127.357 60.5842C127.781 60.0596 128.167 59.527 128.138 59.0528C128.109 58.5865 127.698 58.1176 127.24 57.6619C126.861 58.197 126.519 58.7402 126.549 59.2118C126.578 59.6516 126.946 60.1205 127.359 60.5842H127.357Z" fill="black"/>
<path d="M124.796 48.3942C124.915 48.8737 125.487 49.3215 126.054 49.7507C126.391 49.1281 126.701 48.4975 126.582 48.01C126.457 47.4907 125.856 47.0615 125.241 46.6509C124.95 47.2788 124.677 47.9146 124.793 48.3942H124.796Z" fill="black"/>
<path d="M125.671 51.9841C125.748 52.4212 126.185 52.8504 126.659 53.2664C127.017 52.6888 127.332 52.1086 127.239 51.6317C127.16 51.168 126.693 50.7521 126.18 50.3494C125.867 50.9322 125.589 51.5151 125.671 51.9841Z" fill="black"/>
<path d="M102.996 13.8302C103.152 14.4899 103.333 15.1337 103.717 15.433C104.077 15.7165 104.689 15.751 105.32 15.7457C105.203 15.0568 105.057 14.3839 104.663 14.0765C104.297 13.7825 103.658 13.7851 102.996 13.8302Z" fill="black"/>
<path d="M99.8828 11.7321C100.076 12.3812 100.293 13.0117 100.686 13.2793C101.096 13.5601 101.804 13.5204 102.506 13.4674C102.347 12.7918 102.164 12.1348 101.761 11.8592C101.335 11.5572 100.609 11.634 99.8855 11.7321H99.8828Z" fill="black"/>
<path d="M105.788 16.1379C105.902 16.8029 106.04 17.452 106.4 17.7726C106.781 18.109 107.491 18.1567 108.199 18.1859C108.125 17.4891 108.019 16.8108 107.645 16.4796C107.253 16.1326 106.516 16.1273 105.785 16.1379H105.788Z" fill="black"/>
<path d="M107.512 109.23C107.909 108.867 107.988 108.077 108.068 107.314C107.36 107.343 106.648 107.388 106.266 107.725C105.866 108.08 105.739 108.835 105.617 109.571C106.362 109.582 107.114 109.582 107.512 109.23Z" fill="black"/>
<path d="M93.5195 8.08631C93.7871 8.69567 94.0759 9.28119 94.4945 9.50639C94.9343 9.74218 95.6205 9.62561 96.3014 9.49049C96.063 8.83874 95.8007 8.20818 95.3662 7.97503C94.9184 7.74453 94.219 7.90615 93.5195 8.08631Z" fill="black"/>
<path d="M96.832 9.78997C97.0652 10.4232 97.3195 11.0378 97.7328 11.2842C98.1249 11.52 98.7396 11.4776 99.3675 11.3982C99.1688 10.7279 98.9462 10.0788 98.5329 9.82441C98.1249 9.58067 97.4864 9.66545 96.832 9.78997Z" fill="black"/>
<path d="M108.645 18.6042C108.716 19.2745 108.811 19.9342 109.14 20.2734C109.455 20.5966 110.065 20.7026 110.706 20.7741C110.674 20.0773 110.613 19.3938 110.261 19.0414C109.927 18.7076 109.299 18.636 108.645 18.6042Z" fill="black"/>
<path d="M39.5609 117.594C39.2695 116.921 38.9675 116.238 38.5065 115.991C38.0455 115.745 37.3169 115.883 36.6016 116.026C36.8268 116.648 37.0599 117.281 37.4282 117.607C37.5554 117.674 37.6799 117.74 37.807 117.806C38.276 117.923 38.9251 117.761 39.5583 117.594H39.5609Z" fill="black"/>
<path d="M9.93471 86.0157C10.1732 85.3004 10.4195 84.5639 10.2261 84.0711C10.0539 83.6101 9.46841 83.2445 8.867 82.8921C8.867 82.8947 8.86435 82.9 8.8617 82.9027C8.61796 83.52 8.36626 84.1559 8.4272 84.6433C8.48019 84.7838 8.53317 84.9215 8.58616 85.062C8.84315 85.4435 9.38363 85.7375 9.93471 86.0157Z" fill="black"/>
<path d="M33.1812 113.967C32.9719 113.249 32.752 112.515 32.3201 112.219C31.8962 111.927 31.1517 111.977 30.4258 112.036C30.5741 112.685 30.7305 113.347 31.059 113.71C31.1756 113.792 31.2948 113.874 31.4114 113.954C31.8644 114.139 32.5294 114.055 33.1785 113.967H33.1812Z" fill="black"/>
<path d="M46.3608 120.432C45.9925 119.796 45.6084 119.149 45.1262 118.969C44.644 118.789 43.926 119.019 43.2266 119.25C43.5445 119.875 43.8783 120.5 44.3208 120.744C44.395 120.773 44.4691 120.8 44.5433 120.829C45.0414 120.946 45.7064 120.691 46.3608 120.432Z" fill="black"/>
<path d="M90.2188 6.51773C90.5314 7.12445 90.8599 7.71261 91.2997 7.91132C91.7183 8.09943 92.3383 7.9802 92.9662 7.81859C92.6853 7.17214 92.3807 6.54158 91.9303 6.33757C91.4984 6.14152 90.8626 6.30843 90.2188 6.51508V6.51773Z" fill="black"/>
<path d="M7.55211 79.0267C7.87004 78.3485 8.19857 77.6464 8.07139 77.1297C7.95482 76.6634 7.41434 76.2316 6.86592 75.813C6.52944 76.4303 6.19297 77.0635 6.24331 77.5722C6.2645 77.6596 6.2857 77.7471 6.30689 77.8345C6.4897 78.2796 7.01163 78.6611 7.55211 79.0267Z" fill="black"/>
<path d="M111.528 22.9016C111.864 23.2831 112.569 23.4156 113.269 23.5321C113.276 22.83 113.258 22.1359 112.924 21.7597C112.582 21.3835 111.848 21.2907 111.117 21.2166C111.149 21.8842 111.207 22.5413 111.525 22.9016H111.528Z" fill="black"/>
<path d="M11.5442 34.0398C11.3164 34.4849 11.47 35.1791 11.6502 35.8705C12.3072 35.5871 12.9643 35.2877 13.2054 34.8373C13.2584 34.7419 13.3776 34.7048 13.4756 34.7551C13.5736 34.8081 13.6081 34.9274 13.5578 35.0254C13.2451 35.6083 12.49 35.9421 11.7535 36.26C11.939 36.9859 12.0953 37.7145 11.8436 38.2709C11.5998 38.8087 10.9878 39.1691 10.3493 39.5029C10.5931 40.2447 10.8262 41.0024 10.6037 41.5986C10.3732 42.2212 9.64988 42.6424 8.94779 43.0504C9.22333 43.7446 9.46708 44.4493 9.28162 45.0322C9.11735 45.5886 8.55833 46.0204 7.96486 46.4258C8.29604 47.1279 8.61397 47.8432 8.46295 48.4632C8.30399 49.1123 7.63634 49.6236 6.98724 50.1164C7.34226 50.7734 7.66813 51.4464 7.5648 52.0531C7.46413 52.628 6.97664 53.1182 6.44676 53.5844C6.85741 54.2468 7.24953 54.925 7.16739 55.5689C7.07996 56.2339 6.47855 56.822 5.89568 57.3863C6.32753 57.9957 6.73024 58.6183 6.69315 59.2383C6.65606 59.8132 6.22951 60.351 5.76056 60.8756C6.256 61.4823 6.74614 62.1102 6.74614 62.7514C6.74614 63.4376 6.20566 64.0946 5.68638 64.7305C5.68373 64.7358 5.67843 64.7384 5.67578 64.7437C6.17652 65.2948 6.65341 65.8671 6.69315 66.4764C6.73024 67.054 6.38052 67.6369 5.98046 68.2092C6.53949 68.7496 7.09851 69.3113 7.16739 69.9392C7.25482 70.6042 6.80178 71.3195 6.36728 72.011C6.35668 72.0269 6.34873 72.0428 6.33813 72.0561C6.9051 72.5462 7.45618 73.0602 7.56216 73.6616C7.66018 74.2286 7.38465 74.8485 7.05877 75.4632C7.68138 75.9348 8.30664 76.4276 8.4603 77.0396C8.62192 77.6967 8.2616 78.4623 7.91453 79.2042C7.90658 79.2201 7.89863 79.2386 7.89068 79.2545C8.50269 79.6678 9.09616 80.105 9.27897 80.6825C9.44853 81.231 9.25777 81.8748 9.01403 82.5212C9.69492 82.916 10.3758 83.3319 10.5984 83.9333C10.8448 84.5586 10.5745 85.3693 10.3122 86.1509C10.3069 86.1668 10.3016 86.1853 10.2963 86.2012C10.9534 86.5351 11.5919 86.8954 11.8383 87.4438C12.0714 87.9578 11.9522 88.6175 11.7827 89.2851C12.5086 89.5978 13.2451 89.9316 13.5525 90.5039C13.873 91.1026 13.7061 91.9372 13.5445 92.7453C13.5445 92.7585 13.5392 92.7691 13.5366 92.7824C14.2201 93.034 14.8798 93.3202 15.1898 93.8342C15.4945 94.3084 15.4627 94.9787 15.3805 95.6649C16.1436 95.8848 16.9198 96.1206 17.3014 96.6558C17.6829 97.2122 17.6193 98.0573 17.5584 98.8733C17.5584 98.8972 17.5557 98.9237 17.5531 98.9502C18.2525 99.1144 18.9387 99.3131 19.307 99.7741C19.662 100.214 19.707 100.879 19.707 101.562C20.5045 101.695 21.3205 101.835 21.7656 102.336C22.216 102.845 22.2504 103.69 22.2849 104.506C22.2849 104.519 22.2849 104.53 22.2849 104.543C23.0002 104.623 23.6944 104.744 24.1156 105.163C24.5077 105.568 24.6296 106.231 24.7064 106.914C25.5198 106.949 26.357 106.983 26.8631 107.431C27.3717 107.881 27.5095 108.716 27.642 109.521C27.642 109.537 27.6473 109.553 27.6499 109.566C28.352 109.561 29.0409 109.603 29.5045 109.964C29.9602 110.321 30.1669 110.968 30.3311 111.643C30.3364 111.643 30.3391 111.643 30.3444 111.643C31.1551 111.58 31.9923 111.514 32.5407 111.89C33.0971 112.271 33.3355 113.09 33.5687 113.882C33.5713 113.893 33.574 113.903 33.5766 113.914C34.2681 113.827 34.949 113.787 35.4445 114.084C35.9373 114.38 36.2207 114.998 36.4645 115.649C37.2673 115.488 38.0939 115.321 38.6926 115.641C39.2861 115.962 39.6226 116.738 39.9458 117.491C39.9458 117.491 39.9458 117.493 39.9458 117.496C40.6293 117.324 41.3049 117.202 41.8295 117.438C42.3568 117.676 42.7144 118.27 43.0403 118.895C43.0482 118.895 43.0562 118.89 43.0615 118.887C43.8351 118.63 44.6379 118.365 45.2605 118.598C45.8884 118.831 46.315 119.565 46.7256 120.275C46.7256 120.278 46.7309 120.283 46.7309 120.286C47.3853 120.031 48.0397 119.825 48.5882 120C49.1392 120.161 49.5658 120.71 49.9658 121.293C49.9658 121.293 49.9685 121.293 49.9711 121.293C50.7077 120.943 51.4707 120.58 52.1251 120.739C52.7795 120.9 53.2935 121.576 53.7889 122.23C54.4089 121.902 55.0368 121.618 55.6091 121.716C56.1813 121.817 56.6688 122.299 57.1325 122.827C57.8293 122.392 58.5526 121.947 59.2308 122.034C59.8984 122.122 60.484 122.726 61.0509 123.309C61.6232 122.906 62.2087 122.551 62.7942 122.588C63.3692 122.625 63.9096 123.054 64.4342 123.523C64.4395 123.518 64.4475 123.513 64.4528 123.507C65.086 122.991 65.7404 122.456 66.4107 122.456C67.081 122.456 67.7539 122.996 68.3898 123.515C68.3898 123.515 68.3898 123.515 68.3924 123.518C68.9144 123.052 69.4548 122.625 70.0271 122.588C70.6126 122.551 71.2008 122.909 71.7757 123.311C71.7837 123.303 71.789 123.296 71.7969 123.29C72.3586 122.707 72.9415 122.106 73.5932 122.032C74.2582 121.944 74.9735 122.397 75.665 122.832C75.673 122.837 75.6783 122.84 75.6862 122.845C76.1525 122.313 76.64 121.815 77.2096 121.714C77.7846 121.613 78.4178 121.902 79.043 122.233C79.051 122.223 79.0589 122.212 79.0669 122.201C79.5544 121.56 80.0577 120.895 80.691 120.736C81.348 120.575 82.1137 120.935 82.8555 121.282C82.8582 121.282 82.8635 121.285 82.8661 121.287C83.2609 120.712 83.6795 120.172 84.2279 119.997C84.7896 119.822 85.4546 120.026 86.1143 120.281V120.273C86.5302 119.563 86.9541 118.829 87.5821 118.595C88.2073 118.349 89.0127 118.617 89.7943 118.879C90.1149 118.259 90.4646 117.671 90.9865 117.435C91.5164 117.194 92.2026 117.329 92.8914 117.507C92.8914 117.501 92.8968 117.496 92.8994 117.488C93.2226 116.736 93.5591 115.959 94.1526 115.639C94.7434 115.321 95.562 115.48 96.3595 115.639C96.6033 114.99 96.8841 114.375 97.3769 114.081C97.8697 113.766 98.5744 113.808 99.2871 113.898C99.2898 113.887 99.2924 113.877 99.2951 113.866C99.5203 113.085 99.7534 112.277 100.302 111.887C100.856 111.508 101.695 111.569 102.511 111.63C102.673 110.96 102.874 110.316 103.314 109.961C103.773 109.59 104.48 109.556 105.198 109.561C105.198 109.545 105.203 109.529 105.206 109.513C105.338 108.705 105.476 107.871 105.985 107.423C106.48 106.983 107.296 106.941 108.094 106.906C108.173 106.217 108.3 105.555 108.703 105.152C109.13 104.739 109.837 104.628 110.558 104.551C110.558 104.532 110.558 104.514 110.558 104.498C110.592 103.682 110.627 102.837 111.077 102.328C111.517 101.833 112.32 101.69 113.109 101.56C113.109 100.879 113.157 100.217 113.506 99.7688C113.883 99.2893 114.582 99.0853 115.297 98.9157C115.297 98.8945 115.295 98.8707 115.292 98.8495C115.229 98.0388 115.162 97.2016 115.539 96.6531C115.907 96.1153 116.683 95.8742 117.451 95.649C117.369 94.9734 117.335 94.3111 117.626 93.8262C117.939 93.3043 118.615 93.0182 119.306 92.7638C119.306 92.7506 119.301 92.7373 119.298 92.7241C119.136 91.924 118.97 91.0947 119.29 90.4959C119.595 89.9289 120.313 89.6004 121.031 89.2904C120.864 88.6175 120.747 87.9525 120.98 87.4359C121.232 86.8768 121.884 86.5086 122.552 86.1668C122.546 86.1535 122.541 86.1376 122.538 86.1244C122.281 85.3508 122.016 84.548 122.249 83.9254C122.472 83.3266 123.148 82.9133 123.826 82.5186C123.574 81.8695 123.373 81.2204 123.545 80.6746C123.717 80.0917 124.324 79.644 124.947 79.2227C124.947 79.2201 124.944 79.2174 124.941 79.2121C124.592 78.4729 124.229 77.7126 124.388 77.0582C124.539 76.4382 125.153 75.9454 125.773 75.4738C125.445 74.8539 125.161 74.2259 125.259 73.6537C125.365 73.047 125.903 72.533 126.467 72.0428C126.033 71.3487 125.593 70.6307 125.68 69.9551C125.763 69.3245 126.306 68.7655 126.859 68.2277C126.454 67.6501 126.094 67.0567 126.131 66.4711C126.171 65.8591 126.653 65.2869 127.156 64.7305C126.64 64.0973 126.104 63.4429 126.104 62.7726C126.104 62.1023 126.589 61.4982 127.082 60.8941C126.608 60.3643 126.168 59.8158 126.131 59.2356C126.091 58.6157 126.496 57.9878 126.931 57.3784C126.351 56.8194 125.755 56.2392 125.68 55.5874C125.598 54.9515 126.006 54.268 126.425 53.6056C125.879 53.1288 125.363 52.6333 125.259 52.0504C125.153 51.4384 125.484 50.7628 125.839 50.1031C125.201 49.6183 124.544 49.1176 124.388 48.487C124.234 47.8617 124.554 47.1332 124.886 46.4258C124.29 46.0231 123.723 45.5939 123.542 45.0295C123.357 44.4334 123.595 43.726 123.868 43.0266C123.177 42.6239 122.475 42.2053 122.247 41.5933C122.011 40.9998 122.247 40.2394 122.493 39.4949C121.847 39.1664 121.224 38.8087 120.98 38.2683C120.729 37.7092 120.89 36.9753 121.081 36.2494C120.347 35.9341 119.603 35.6003 119.29 35.0201C119.237 34.9247 119.274 34.8028 119.372 34.7499C119.468 34.6969 119.589 34.734 119.642 34.832C119.881 35.2771 120.533 35.5765 121.184 35.86C121.365 35.1711 121.518 34.4849 121.28 34.0398C121.235 33.9577 121.259 33.8623 121.325 33.8014C120.212 31.7004 118.983 29.6736 117.645 27.7263C117.6 27.7157 117.555 27.6892 117.528 27.6442C117.237 27.207 116.521 27.0189 115.801 26.852C115.753 27.5355 115.729 28.2138 116.002 28.6138C116.063 28.7039 116.042 28.8284 115.949 28.8894C115.915 28.9132 115.875 28.9238 115.838 28.9238C115.774 28.9238 115.713 28.8947 115.674 28.8364C115.316 28.3145 115.353 27.5329 115.409 26.7593C114.704 26.5923 114.015 26.3963 113.644 25.9326C113.252 25.4478 113.236 24.6874 113.247 23.927C112.457 23.7972 111.652 23.6542 111.215 23.1587C110.796 22.6871 110.738 21.9267 110.703 21.169C109.969 21.0895 109.252 20.973 108.836 20.5411C108.404 20.096 108.303 19.3356 108.224 18.5779C107.426 18.5461 106.613 18.5011 106.117 18.0613C105.643 17.6427 105.492 16.8902 105.365 16.1351C104.642 16.1431 103.926 16.1087 103.449 15.7377C102.949 15.3456 102.747 14.5985 102.575 13.8514C101.785 13.9123 100.975 13.9653 100.44 13.5997C99.923 13.2473 99.6792 12.5134 99.462 11.7769C98.7413 11.8723 98.0233 11.9279 97.5067 11.6179C96.9636 11.292 96.6775 10.5794 96.4152 9.85871C95.6442 10.0124 94.8573 10.1554 94.2824 9.84547C93.7366 9.55138 93.4081 8.87049 93.1061 8.17634C92.3881 8.3618 91.6648 8.51017 91.1137 8.26113C90.5388 8.00148 90.1652 7.31794 89.8128 6.62909C89.0684 6.87549 88.3053 7.11128 87.7092 6.88873C87.1264 6.67148 86.7183 6.02503 86.3342 5.36533C85.64 5.64087 84.938 5.88461 84.3524 5.69915C83.7563 5.52164 83.3033 4.89373 82.8714 4.25523C82.172 4.5864 81.4566 4.90168 80.842 4.75067C80.2326 4.6023 79.7478 4.00883 79.2841 3.39947C78.6218 3.75714 77.9435 4.09097 77.3315 3.98499C76.7142 3.87901 76.1949 3.32264 75.6968 2.75037C75.0424 3.15573 74.3695 3.53724 73.7363 3.45776C73.1137 3.37563 72.5599 2.8431 72.0274 2.29732C71.4101 2.73712 70.769 3.15308 70.1463 3.11599C69.529 3.07624 68.9541 2.58611 68.3951 2.08007C67.799 2.56491 67.1817 3.0365 66.5564 3.0365C65.9311 3.0365 65.2873 2.55431 64.6833 2.06152C64.1189 2.57551 63.5361 3.0736 62.9135 3.11599C62.2962 3.15573 61.6683 2.75037 61.0589 2.31587C60.5317 2.85899 59.9832 3.39152 59.3739 3.45776C58.7354 3.53989 58.0492 3.12658 57.3815 2.70798C56.8755 3.2935 56.3509 3.87636 55.7309 3.98764C55.1242 4.09362 54.4566 3.77039 53.8022 3.41537C53.3438 4.01678 52.8669 4.60495 52.2735 4.75332C51.6403 4.90698 50.9037 4.57846 50.1857 4.24198C49.7592 4.87784 49.3114 5.51105 48.71 5.70445C48.1245 5.88461 47.4304 5.65941 46.7442 5.39182C46.3627 6.04358 45.9573 6.67943 45.3824 6.89403C44.7757 7.13248 43.9994 6.88609 43.239 6.63174C42.8919 7.32059 42.5263 8.00413 41.9514 8.26642C41.4056 8.51282 40.6956 8.36445 39.9855 8.18164C39.6835 8.87579 39.3576 9.55668 38.8092 9.85077C38.2316 10.1607 37.4315 10.015 36.6499 9.86136C36.3877 10.582 36.1015 11.2973 35.5584 11.6232C35.0577 11.9438 34.337 11.8935 33.6137 11.8007C33.4018 12.524 33.166 13.242 32.6573 13.6023C32.1089 13.9785 31.2796 13.9229 30.4715 13.862C30.2993 14.6038 30.1059 15.3483 29.6184 15.7404C29.1574 16.1113 28.4474 16.1457 27.7268 16.1404C27.5996 16.8929 27.4486 17.648 26.977 18.0666C26.4815 18.5064 25.6629 18.5488 24.8654 18.5832C24.7859 19.3515 24.6773 20.1146 24.2269 20.5517C23.8056 20.9597 23.1062 21.0736 22.3909 21.1505C22.3591 21.9161 22.3008 22.6871 21.8795 23.164C21.4344 23.6648 20.6184 23.8052 19.8209 23.9376C19.8315 24.6901 19.8103 25.4425 19.4235 25.9379C19.0553 26.4069 18.377 26.6135 17.6749 26.7804C17.7332 27.5461 17.773 28.3224 17.4179 28.8417C17.357 28.9318 17.2325 28.9556 17.1424 28.8947C17.0523 28.8337 17.0285 28.7092 17.0894 28.6191C17.3596 28.2244 17.3332 27.5514 17.2828 26.8732C16.5595 27.0401 15.8309 27.2202 15.5369 27.6521C15.4971 27.7077 15.4362 27.7395 15.3726 27.7395C15.354 27.7395 15.3355 27.7369 15.3143 27.7316C13.9366 29.7398 12.6729 31.8302 11.5336 34.0001C11.531 34.016 11.5283 34.0292 11.5204 34.0451L11.5442 34.0398Z" fill="black"/>
<path d="M113.661 24.0012C113.653 24.6689 113.677 25.3233 113.974 25.6915C114.255 26.0413 114.843 26.2188 115.458 26.3645C115.503 25.6836 115.516 25.0159 115.225 24.6397C114.933 24.2662 114.313 24.1178 113.661 24.0012Z" fill="black"/>
<path d="M66.5777 2.64704C67.0545 2.64704 67.5924 2.24433 68.1196 1.81778C67.595 1.34354 67.0572 0.898438 66.5512 0.898438C66.0451 0.898438 65.5205 1.33294 65.0039 1.79923C65.5391 2.23374 66.0822 2.64704 66.5777 2.64704Z" fill="black"/>
<path d="M61.3594 2.0376C61.8946 2.41646 62.4377 2.76089 62.9093 2.72909C63.3862 2.6973 63.8949 2.27075 64.3956 1.8177C63.8684 1.39115 63.3358 1.00433 62.8563 1.03083C62.3529 1.06262 61.8495 1.53421 61.3594 2.0376Z" fill="black"/>
<path d="M57.668 2.41119C58.2588 2.7821 58.8602 3.13447 59.3503 3.07089C59.814 3.02055 60.2909 2.5675 60.7572 2.08796C60.177 1.672 59.5835 1.27989 59.0854 1.34348C58.59 1.40706 58.1237 1.88926 57.6706 2.40854L57.668 2.41119Z" fill="black"/>
<path d="M46.9648 5.04999C47.5689 5.28049 48.1624 5.47124 48.6101 5.33083C49.0685 5.18511 49.4632 4.64198 49.8394 4.08031C49.2327 3.80212 48.626 3.56632 48.1677 3.69879C47.6987 3.84716 47.3225 4.43798 46.9648 5.04999Z" fill="black"/>
<path d="M54.0664 3.10254C54.644 3.40987 55.2189 3.68276 55.6825 3.60328C56.1541 3.51849 56.6151 3.02041 57.0629 2.50377C56.488 2.14875 55.9104 1.83612 55.4388 1.92885C54.9407 2.01628 54.4956 2.54616 54.0664 3.10519V3.10254Z" fill="black"/>
<path d="M50.4297 3.91612C51.0682 4.21286 51.712 4.49369 52.1968 4.37447C52.6446 4.2632 53.0632 3.75981 53.4659 3.23258C52.8353 2.89345 52.1995 2.57553 51.7093 2.69475C51.2245 2.81132 50.8165 3.3465 50.4297 3.91612Z" fill="black"/>
<path d="M83.2578 4.09363C83.6393 4.6553 84.0367 5.19578 84.4924 5.3309C84.9375 5.47396 85.5442 5.26731 86.1536 5.02887C85.7986 4.4248 85.4277 3.84458 84.9587 3.69622C84.4977 3.54785 83.8778 3.80219 83.2578 4.09363Z" fill="black"/>
<path d="M81.3916 2.6949C80.9068 2.57568 80.2789 2.88301 79.6562 3.21948C80.0669 3.75466 80.4908 4.2607 80.9545 4.37462C81.426 4.48855 82.046 4.22361 82.6633 3.93217C82.2712 3.35725 81.8632 2.80883 81.389 2.69225L81.3916 2.6949Z" fill="black"/>
<path d="M86.7292 5.22751C87.0683 5.80773 87.4287 6.36145 87.8685 6.52571C88.3242 6.69527 88.9892 6.49922 89.6515 6.28197C89.3362 5.67261 88.9997 5.08974 88.5467 4.90958C88.0672 4.72412 87.3969 4.96257 86.7266 5.22751H86.7292Z" fill="black"/>
<path d="M68.7305 1.83628C69.2233 2.28138 69.7266 2.69734 70.1956 2.72913C70.6698 2.75827 71.2236 2.4059 71.7693 2.02174C71.2845 1.52895 70.7891 1.06531 70.3016 1.03351C69.8141 1.00172 69.2683 1.40178 68.7305 1.83893V1.83628Z" fill="black"/>
<path d="M74.0229 1.34608C73.5248 1.2825 72.9473 1.66401 72.375 2.07202C72.8466 2.55421 73.3314 3.00991 73.8083 3.07085C74.2932 3.13178 74.876 2.8112 75.4536 2.45354C74.9926 1.92101 74.5157 1.40967 74.0203 1.34608H74.0229Z" fill="black"/>
<path d="M77.7263 1.92916C77.2494 1.84438 76.6533 2.1835 76.0625 2.54912C76.4997 3.05251 76.9527 3.5241 77.4243 3.60623C77.8906 3.68571 78.4788 3.40753 79.0643 3.09225C78.6404 2.54117 78.2032 2.01394 77.7263 1.92916Z" fill="black"/>
<path d="M99.707 113.954C100.444 114.054 101.196 114.144 101.625 113.85C102.084 113.543 102.269 112.777 102.441 112.025C101.715 111.972 100.976 111.927 100.552 112.218C100.126 112.523 99.911 113.246 99.707 113.954Z" fill="black"/>
<path d="M13.1613 92.6391C13.307 91.9079 13.4554 91.1555 13.2037 90.6865C12.9653 90.2441 12.3268 89.9473 11.683 89.6665C11.516 90.2971 11.3491 90.9382 11.4551 91.4151C11.5346 91.5661 11.6141 91.7171 11.6935 91.8682C12.0088 92.2073 12.5837 92.4298 13.1613 92.6391Z" fill="black"/>
<path d="M17.1616 98.8547C17.1616 98.8547 17.1616 98.8468 17.1616 98.8415C17.2173 98.0917 17.2755 97.3181 16.9735 96.8809C16.6821 96.4729 16.0065 96.2583 15.3282 96.0623C15.3282 96.0649 15.3282 96.0702 15.3282 96.0729C15.2382 96.7273 15.1481 97.4002 15.3203 97.8586C15.4077 97.9884 15.4978 98.1155 15.5879 98.2454C15.9402 98.558 16.547 98.7143 17.1616 98.8574V98.8547Z" fill="black"/>
<path d="M27.2484 109.572C27.1265 108.838 26.9993 108.08 26.5993 107.728C26.2098 107.383 25.4733 107.341 24.75 107.312C24.8189 107.977 24.8931 108.658 25.1792 109.063C25.2878 109.161 25.3991 109.259 25.5104 109.357C25.9369 109.588 26.5993 109.585 27.2484 109.574V109.572Z" fill="black"/>
<path d="M21.8867 104.495C21.8576 103.756 21.8232 102.993 21.4681 102.596C21.1264 102.211 20.411 102.079 19.7036 101.962C19.693 102.63 19.6824 103.319 19.9156 103.759C20.0136 103.87 20.109 103.979 20.207 104.087C20.5965 104.355 21.2456 104.429 21.8841 104.495H21.8867Z" fill="black"/>
<path d="M102.934 111.662C103.569 111.699 104.176 111.694 104.529 111.421C104.881 111.146 105.035 110.576 105.146 109.964C104.523 109.964 103.927 109.998 103.583 110.276C103.252 110.544 103.077 111.085 102.934 111.662Z" fill="black"/>
<path d="M41.6711 117.798C41.2764 117.621 40.7041 117.719 40.1133 117.864C40.3729 118.442 40.6591 118.974 41.0671 119.16C41.4724 119.343 42.0579 119.208 42.662 119.02C42.3759 118.479 42.0685 117.981 41.6711 117.801V117.798Z" fill="black"/>
<path d="M57.4062 123.126C57.9017 123.704 58.4157 124.292 58.9482 124.361C59.4807 124.432 60.1166 123.979 60.7339 123.537C60.2279 123.015 59.7033 122.49 59.1893 122.424C58.6647 122.355 58.0289 122.737 57.4062 123.126Z" fill="black"/>
<path d="M48.4781 120.379C48.0621 120.246 47.5084 120.416 46.9414 120.633C47.2673 121.173 47.6117 121.666 48.0383 121.801C48.4648 121.936 49.0318 121.727 49.6067 121.465C49.257 120.961 48.8914 120.503 48.4781 120.381V120.379Z" fill="black"/>
<path d="M35.2387 114.423C34.8651 114.198 34.2902 114.227 33.6914 114.298C33.8769 114.894 34.0941 115.443 34.465 115.671C34.8518 115.904 35.448 115.838 36.0679 115.721C35.8533 115.159 35.6122 114.643 35.2387 114.42V114.423Z" fill="black"/>
<path d="M55.5478 122.106C55.116 122.032 54.5808 122.265 54.043 122.548C54.4324 123.047 54.8351 123.492 55.2723 123.571C55.7121 123.648 56.2526 123.367 56.7957 123.036C56.393 122.583 55.977 122.183 55.5478 122.106Z" fill="black"/>
<path d="M52.0418 121.123C51.5384 120.999 50.8628 121.314 50.2031 121.626C50.6244 122.254 51.0615 122.89 51.5808 123.017C52.1001 123.145 52.7836 122.782 53.4486 122.421C53.0062 121.838 52.5478 121.25 52.0445 121.126L52.0418 121.123Z" fill="black"/>
<path d="M29.2581 110.276C28.9083 110.004 28.3281 109.964 27.7188 109.964C27.83 110.576 27.9837 111.146 28.3387 111.421C28.6911 111.705 29.2951 111.712 29.9284 111.673C29.7826 111.09 29.6025 110.547 29.2607 110.276H29.2581Z" fill="black"/>
<path d="M7.7211 79.6174C7.46941 80.1817 7.27335 80.7328 7.39787 81.1594C7.54094 81.6071 8.08407 81.9701 8.66429 82.3118C8.87094 81.7528 9.02725 81.2097 8.89743 80.7964C8.75702 80.3592 8.25363 79.9804 7.7211 79.6147V79.6174Z" fill="black"/>
<path d="M10.1694 86.5801C9.98397 87.1656 9.85679 87.7326 10.0343 88.1273C10.2277 88.5565 10.8026 88.8506 11.412 89.1182C11.5551 88.5406 11.6478 87.9869 11.4729 87.6028C11.2848 87.1868 10.7417 86.8715 10.1668 86.5801H10.1694Z" fill="black"/>
<path d="M17.5276 99.3477C17.4958 99.9517 17.5117 100.521 17.774 100.858C18.0628 101.226 18.6695 101.377 19.3106 101.491C19.3106 100.903 19.2629 100.346 18.998 100.018C18.7172 99.6709 18.1369 99.496 17.5276 99.3477Z" fill="black"/>
<path d="M22.3086 104.94C22.3457 105.558 22.4252 106.141 22.7404 106.456C23.0637 106.779 23.6704 106.856 24.3062 106.89C24.2374 106.297 24.1287 105.741 23.8347 105.436C23.5194 105.121 22.9286 105.012 22.3086 104.94Z" fill="black"/>
<path d="M13.4652 93.1746C13.3539 93.7813 13.2957 94.3615 13.5235 94.7298C13.7672 95.1378 14.366 95.3577 14.9992 95.5484C15.0681 94.9576 15.0866 94.3986 14.8562 94.0409C14.6204 93.6462 14.0587 93.3971 13.4652 93.1746Z" fill="black"/>
<path d="M64.7383 123.791C65.2973 124.302 65.8749 124.811 66.418 124.811C66.9611 124.811 67.5413 124.297 68.1004 123.786C67.5307 123.319 66.9479 122.85 66.418 122.85C65.8881 122.85 65.3106 123.325 64.7383 123.791Z" fill="black"/>
<path d="M90.1953 119.006C90.802 119.2 91.3902 119.343 91.7982 119.157C92.2036 118.974 92.4897 118.45 92.7467 117.875C92.1479 117.724 91.5677 117.618 91.1676 117.798C90.7755 117.976 90.4735 118.468 90.1953 119.006Z" fill="black"/>
<path d="M83.25 121.457C83.8276 121.716 84.3919 121.923 84.8317 121.796C85.2529 121.661 85.6 121.168 85.9259 120.625C85.351 120.408 84.7893 120.243 84.3628 120.373C83.9521 120.503 83.5918 120.956 83.25 121.454V121.457Z" fill="black"/>
<path d="M86.5078 120.426C87.2073 120.702 87.9279 120.98 88.4233 120.797C88.9347 120.612 89.2923 119.92 89.6341 119.239C88.9373 119.006 88.2246 118.778 87.7451 118.969C87.2602 119.149 86.8761 119.793 86.5105 120.426H86.5078Z" fill="black"/>
<path d="M97.6027 114.42C97.2291 114.645 96.9854 115.159 96.7734 115.718C97.404 115.837 98.016 115.909 98.4002 115.673C98.787 115.44 99.0069 114.886 99.1923 114.288C98.575 114.213 97.9789 114.182 97.6054 114.42H97.6027Z" fill="black"/>
<path d="M93.2969 117.61C94.0228 117.803 94.762 117.986 95.2283 117.735C95.7078 117.478 95.9781 116.738 96.2377 116.02C95.5303 115.88 94.8097 115.75 94.3566 115.994C93.893 116.243 93.5883 116.934 93.2969 117.613V117.61Z" fill="black"/>
<path d="M70.1402 124.466C70.5959 124.437 71.0543 124.045 71.502 123.597C71.0013 123.25 70.5032 122.959 70.0607 122.983C69.6289 123.012 69.1679 123.367 68.7148 123.77C69.2076 124.159 69.7031 124.493 70.1429 124.466H70.1402Z" fill="black"/>
<path d="M6.12357 72.3926C5.80299 72.9251 5.5407 73.4523 5.62548 73.8895C5.70761 74.3664 6.2004 74.7982 6.73558 75.2115C7.01377 74.679 7.24161 74.1518 7.16743 73.7252C7.08795 73.2722 6.619 72.8271 6.12357 72.3952V72.3926Z" fill="black"/>
<path d="M61.3438 123.595C61.7915 124.043 62.2472 124.44 62.6976 124.469C63.1374 124.496 63.6355 124.164 64.1283 123.775C63.6726 123.37 63.2116 123.012 62.7771 122.985C62.3399 122.962 61.8418 123.253 61.3438 123.598V123.595Z" fill="black"/>
<path d="M73.6526 122.424C73.1439 122.48 72.622 123.018 72.1133 123.542C72.7279 123.985 73.3585 124.432 73.891 124.361C74.4315 124.292 74.9402 123.72 75.433 123.147C74.8104 122.755 74.1692 122.355 73.6499 122.424H73.6526Z" fill="black"/>
<path d="M76.043 123.057C76.5834 123.386 77.1186 123.658 77.5637 123.568C78.0115 123.492 78.4195 123.049 78.8089 122.554C78.2632 122.268 77.7253 122.026 77.2908 122.106C76.8643 122.18 76.4483 122.596 76.043 123.057Z" fill="black"/>
<path d="M79.4102 122.426C80.0699 122.787 80.7455 123.144 81.2647 123.015C81.7999 122.887 82.2371 122.252 82.6583 121.621C81.9933 121.308 81.3098 120.996 80.8011 121.12C80.3083 121.245 79.8526 121.841 79.4102 122.424V122.426Z" fill="black"/>
<path d="M5.65702 57.058C6.17895 56.552 6.70088 56.03 6.76977 55.516C6.83335 55.0233 6.49953 54.4324 6.13921 53.8469C5.56694 54.3397 4.98672 54.8484 4.91253 55.3756C4.91253 55.3809 4.91253 55.3836 4.91253 55.3889C4.8516 55.8896 5.24371 56.4778 5.65967 57.058H5.65702Z" fill="black"/>
<path d="M6.03085 71.7886C6.42826 71.158 6.83892 70.5063 6.77004 69.9817C6.71705 69.5022 6.23751 69.012 5.74472 68.5325C5.33406 69.1047 4.9181 69.6929 4.91016 70.2016C4.9181 70.2784 4.92605 70.3579 4.93665 70.4347C5.05322 70.9063 5.53012 71.3541 6.03085 71.7886Z" fill="black"/>
<path d="M5.60536 57.6672C5.15496 58.1176 4.75755 58.5733 4.72841 59.0237C4.69661 59.4979 5.08078 60.0305 5.50468 60.5577C5.91004 60.102 6.26506 59.641 6.2942 59.2092C6.32335 58.7376 5.98422 58.1997 5.60801 57.6646L5.60536 57.6672Z" fill="black"/>
<path d="M11.4751 38.1066C11.6658 37.6827 11.5413 37.0575 11.3797 36.4189C10.7836 36.6839 10.2272 36.9753 10.0365 37.3939C9.84041 37.8284 10.0073 38.4669 10.2166 39.116C10.773 38.8246 11.2923 38.512 11.4751 38.104V38.1066Z" fill="black"/>
<path d="M8.47993 40.8595C8.29447 41.339 8.53292 42.0093 8.79521 42.677C9.42047 42.314 10.051 41.9351 10.2285 41.4582C10.3981 41.0025 10.202 40.3428 9.98744 39.6858C9.33039 40.0223 8.67069 40.3746 8.47993 40.8595Z" fill="black"/>
<path d="M7.39447 44.3698C7.24875 44.8281 7.4978 45.4428 7.78658 46.0628C8.30057 45.7077 8.76951 45.3368 8.89403 44.9156C9.03445 44.4705 8.83045 43.8638 8.592 43.2544C8.03828 43.5856 7.52959 43.9353 7.39182 44.3698H7.39447Z" fill="black"/>
<path d="M6.34453 62.7488C6.34453 62.2613 5.92592 61.7102 5.48612 61.1724C4.99333 61.7155 4.50054 62.2719 4.46875 62.7991C4.46875 62.8415 4.46875 62.8839 4.46875 62.9263C4.50849 63.4191 4.94034 63.9357 5.39869 64.4417C5.86763 63.8695 6.34188 63.2813 6.34188 62.7488H6.34453Z" fill="black"/>
<path d="M5.68743 67.9228C6.02921 67.4273 6.32064 66.9345 6.2915 66.4974C6.26236 66.0337 5.857 65.5383 5.4172 65.0535C5.03038 65.541 4.69921 66.0311 4.72835 66.4735C4.76014 66.961 5.20259 67.4485 5.68743 67.9254V67.9228Z" fill="black"/>
<path d="M6.26025 48.0127C6.14102 48.5028 6.45365 49.136 6.79278 49.7613C7.37035 49.3215 7.95057 48.8684 8.07244 48.3677C8.18901 47.8961 7.91877 47.2708 7.62734 46.6509C7.00738 47.0695 6.38477 47.5013 6.26025 48.0127Z" fill="black"/>
<path d="M5.62677 51.6027C5.54199 52.0716 5.87051 52.6598 6.23083 53.24C6.68653 52.8346 7.09454 52.416 7.16872 51.9842C7.2482 51.5205 6.97531 50.9403 6.66533 50.3601C6.1593 50.7522 5.70625 51.1602 5.62677 51.6027Z" fill="black"/>
<path d="M128.534 66.5244C128.573 65.9177 128.16 65.3242 127.699 64.7467C128.242 64.1479 128.775 63.5279 128.775 62.855C128.775 62.182 128.197 61.5064 127.628 60.8838C128.115 60.2824 128.576 59.6651 128.536 59.0266C128.497 58.404 128.009 57.8582 127.474 57.3336C127.945 56.6739 128.409 55.9957 128.322 55.3307C128.234 54.6392 127.596 54.0722 126.963 53.5291C127.376 52.8667 127.755 52.1911 127.63 51.5606C127.524 50.9459 126.968 50.4558 126.372 49.9948C126.756 49.2874 127.124 48.5615 126.965 47.9176C126.804 47.2368 126.102 46.7519 125.41 46.2856C125.736 45.5835 126.03 44.8682 125.85 44.2456C125.662 43.6521 125.036 43.2388 124.385 42.8546C124.681 42.1022 124.965 41.3339 124.734 40.7139C124.499 40.0622 123.744 39.6674 122.999 39.2938C123.243 38.5547 123.455 37.8102 123.192 37.23C122.935 36.663 122.268 36.3265 121.574 36.0218C121.78 35.2376 121.966 34.4428 121.651 33.8546C121.598 33.7592 121.478 33.7221 121.38 33.7725C121.282 33.8255 121.248 33.9447 121.298 34.0427C121.537 34.4852 121.383 35.174 121.203 35.8629C120.551 35.5794 119.899 35.2826 119.661 34.8349C119.608 34.7369 119.489 34.7024 119.391 34.7528C119.293 34.8058 119.258 34.925 119.308 35.023C119.618 35.6032 120.366 35.9344 121.099 36.2523C120.909 36.9783 120.747 37.7121 120.999 38.2712C121.243 38.8116 121.865 39.1693 122.512 39.4978C122.263 40.2423 122.029 41.0027 122.265 41.5962C122.493 42.2082 123.195 42.6268 123.887 43.0295C123.614 43.7289 123.375 44.4363 123.561 45.0324C123.741 45.5968 124.308 46.026 124.904 46.4287C124.573 47.1387 124.252 47.8647 124.406 48.4899C124.562 49.1205 125.219 49.6212 125.858 50.1061C125.5 50.7684 125.169 51.4414 125.278 52.0534C125.381 52.6336 125.898 53.1317 126.443 53.6086C126.025 54.2736 125.617 54.9571 125.699 55.5903C125.77 56.2421 126.369 56.8196 126.949 57.3813C126.515 57.9907 126.109 58.6186 126.149 59.2385C126.186 59.8214 126.626 60.3672 127.1 60.8971C126.605 61.5011 126.123 62.1264 126.123 62.7755C126.123 63.4246 126.658 64.1002 127.175 64.7334C126.671 65.2871 126.189 65.862 126.149 66.4741C126.112 67.0622 126.472 67.653 126.878 68.2306C126.324 68.7684 125.781 69.3275 125.699 69.958C125.611 70.6363 126.051 71.3516 126.486 72.0458C125.921 72.5359 125.384 73.0499 125.278 73.6566C125.177 74.2289 125.463 74.8568 125.792 75.4767C125.172 75.9483 124.557 76.4411 124.406 77.0611C124.247 77.7155 124.61 78.4785 124.96 79.215C124.96 79.2177 124.962 79.2203 124.965 79.2256C124.34 79.6469 123.736 80.0946 123.563 80.6775C123.391 81.2233 123.593 81.8724 123.844 82.5215C123.166 82.9162 122.49 83.3296 122.268 83.9283C122.037 84.5509 122.3 85.3537 122.557 86.1273C122.562 86.1406 122.567 86.1565 122.57 86.1697C121.902 86.5115 121.253 86.8798 120.999 87.4388C120.766 87.9554 120.882 88.6204 121.049 89.2934C120.331 89.6033 119.613 89.9345 119.308 90.4988C118.988 91.0976 119.155 91.9269 119.316 92.727C119.316 92.7402 119.322 92.7535 119.324 92.7667C118.633 93.0211 117.96 93.3072 117.645 93.8291C117.353 94.314 117.388 94.9763 117.47 95.6519C116.701 95.8771 115.925 96.1182 115.557 96.6561C115.181 97.2045 115.247 98.0443 115.31 98.8524C115.31 98.8736 115.313 98.8974 115.316 98.9186C114.6 99.0882 113.901 99.2922 113.525 99.7718C113.172 100.219 113.125 100.882 113.127 101.563C112.338 101.693 111.535 101.836 111.095 102.331C110.645 102.84 110.61 103.685 110.576 104.501C110.576 104.519 110.576 104.538 110.576 104.554C109.855 104.631 109.145 104.745 108.721 105.155C108.316 105.561 108.192 106.223 108.112 106.909C107.315 106.941 106.499 106.986 106.003 107.426C105.494 107.876 105.357 108.711 105.224 109.516C105.224 109.532 105.219 109.548 105.216 109.564C104.498 109.559 103.794 109.593 103.333 109.964C102.893 110.319 102.691 110.963 102.53 111.633C101.714 111.572 100.874 111.511 100.32 111.89C99.7718 112.28 99.5386 113.088 99.3134 113.869C99.3108 113.88 99.3081 113.89 99.3055 113.901C98.5928 113.811 97.888 113.766 97.3952 114.084C96.9025 114.378 96.6216 114.995 96.3779 115.642C95.5804 115.483 94.7617 115.324 94.1709 115.642C93.5775 115.962 93.241 116.739 92.9177 117.491C92.9177 117.496 92.9125 117.502 92.9098 117.51C92.221 117.332 91.5348 117.2 91.0049 117.438C90.4829 117.674 90.1332 118.262 89.8127 118.882C89.0311 118.62 88.223 118.349 87.6004 118.598C86.9725 118.832 86.5486 119.565 86.1353 120.275V120.283C85.4703 120.032 84.8053 119.825 84.2436 120C83.6978 120.175 83.2766 120.715 82.8818 121.29C82.8792 121.29 82.8739 121.288 82.8712 121.285C82.1294 120.938 81.3611 120.577 80.7067 120.739C80.0734 120.898 79.5701 121.563 79.0826 122.204C79.0746 122.215 79.0667 122.225 79.0587 122.236C78.4335 121.905 77.8003 121.616 77.2253 121.717C76.6584 121.817 76.1682 122.313 75.7019 122.848C75.694 122.843 75.6887 122.84 75.6807 122.835C74.9892 122.398 74.2739 121.947 73.6089 122.035C72.9545 122.106 72.3743 122.71 71.8126 123.293C71.8047 123.301 71.7994 123.309 71.7914 123.314C71.2165 122.912 70.6283 122.554 70.0428 122.591C69.4705 122.628 68.9301 123.055 68.4081 123.521C68.4081 123.521 68.4081 123.521 68.4055 123.518C67.7696 122.996 67.1126 122.459 66.4264 122.459C65.7402 122.459 65.1017 122.994 64.4685 123.51C64.4632 123.516 64.4552 123.521 64.4499 123.526C63.9253 123.057 63.3849 122.628 62.8099 122.591C62.2271 122.554 61.6416 122.909 61.0666 123.312C60.4997 122.726 59.9115 122.125 59.2465 122.037C58.5682 121.95 57.8476 122.395 57.1482 122.829C56.6845 122.302 56.197 121.82 55.6248 121.719C55.0525 121.621 54.4246 121.905 53.8046 122.233C53.3092 121.579 52.7952 120.903 52.1408 120.742C51.4864 120.583 50.7234 120.946 49.9868 121.295C49.9868 121.295 49.9842 121.295 49.9815 121.295C49.5815 120.71 49.1523 120.164 48.6038 120.003C48.0554 119.828 47.401 120.034 46.7466 120.289C46.7466 120.286 46.7413 120.281 46.7413 120.278C46.3307 119.568 45.9041 118.834 45.2762 118.601C44.6536 118.371 43.8508 118.633 43.0772 118.89C43.0692 118.89 43.0613 118.895 43.056 118.898C42.7301 118.273 42.3724 117.679 41.8452 117.441C41.3206 117.205 40.6424 117.327 39.9615 117.499C39.9615 117.499 39.9615 117.496 39.9615 117.494C39.6383 116.741 39.3018 115.965 38.7083 115.644C38.1096 115.324 37.2803 115.491 36.4802 115.652C36.2364 115.001 35.9556 114.383 35.4602 114.086C34.9647 113.79 34.2838 113.829 33.5923 113.917C33.5897 113.906 33.587 113.896 33.5844 113.885C33.3539 113.093 33.1128 112.272 32.5564 111.893C32.008 111.517 31.1708 111.583 30.3601 111.646C30.3548 111.646 30.3521 111.646 30.3468 111.646C30.1826 110.971 29.9759 110.322 29.5202 109.967C29.0592 109.604 28.3704 109.564 27.6656 109.569C27.6656 109.553 27.6603 109.537 27.6577 109.524C27.5252 108.716 27.3874 107.882 26.8787 107.434C26.3727 106.986 25.5355 106.949 24.7221 106.917C24.6453 106.234 24.5234 105.571 24.1313 105.166C23.7127 104.747 23.0159 104.625 22.3006 104.546C22.3006 104.533 22.3006 104.522 22.3006 104.509C22.2661 103.693 22.2317 102.848 21.7813 102.339C21.3388 101.838 20.5202 101.698 19.7227 101.565C19.7227 100.879 19.6777 100.214 19.3227 99.777C18.9517 99.3187 18.2682 99.12 17.5687 98.9531C17.5687 98.9266 17.5714 98.9027 17.574 98.8763C17.635 98.0602 17.6959 97.2151 17.3171 96.6587C16.9382 96.1235 16.1593 95.8877 15.3962 95.6678C15.4784 94.9816 15.5102 94.3113 15.2055 93.8371C14.8955 93.3205 14.2358 93.037 13.5523 92.7853C13.5523 92.772 13.5576 92.7614 13.5602 92.7482C13.7218 91.9401 13.8887 91.1056 13.5681 90.5068C13.2608 89.9319 12.5243 89.6007 11.7983 89.2881C11.9679 88.6204 12.0845 87.9607 11.854 87.4467C11.6049 86.8983 10.9691 86.538 10.312 86.2042C10.3173 86.1883 10.3226 86.1697 10.3279 86.1538C10.5902 85.3696 10.8605 84.5615 10.6141 83.9363C10.3915 83.3349 9.70797 82.9216 9.02972 82.5241C9.27347 81.8803 9.46422 81.2339 9.29466 80.6855C9.11185 80.1079 8.51839 79.6707 7.90638 79.2574C7.91432 79.2415 7.92227 79.223 7.93022 79.2071C8.27729 78.4653 8.63761 77.6969 8.476 77.0425C8.32233 76.4305 7.69707 75.9377 7.07446 75.4661C7.40034 74.8515 7.67588 74.2315 7.57785 73.6645C7.47187 73.0631 6.9208 72.5518 6.35383 72.059C6.36442 72.0431 6.37237 72.0272 6.38297 72.014C6.82012 71.3225 7.27052 70.6045 7.18309 69.9421C7.1142 69.3142 6.55518 68.7525 5.99616 68.2121C6.39622 67.6424 6.74594 67.0596 6.70885 66.4794C6.6691 65.87 6.19221 65.3004 5.69148 64.7467C5.69412 64.7414 5.69942 64.7387 5.70207 64.7334C6.22401 64.0975 6.76183 63.4405 6.76183 62.7543C6.76183 62.1158 6.27169 61.4879 5.77626 60.8785C6.24255 60.3566 6.6691 59.8161 6.70885 59.2412C6.74859 58.6212 6.34588 57.9986 5.91138 57.3893C6.49424 56.8223 7.09566 56.2368 7.18309 55.5718C7.26522 54.928 6.87311 54.2497 6.46245 53.5874C6.99233 53.1211 7.47982 52.6309 7.5805 52.056C7.68648 51.4493 7.35795 50.7764 7.00293 50.1193C7.65203 49.6265 8.31968 49.1178 8.47865 48.4661C8.62966 47.8461 8.31173 47.1308 7.98056 46.4287C8.57402 46.0233 9.13305 45.5915 9.29731 45.0351C9.48277 44.4522 9.23638 43.7475 8.96349 43.0533C9.66558 42.6453 10.3889 42.2214 10.6194 41.6015C10.8419 41.0054 10.6088 40.2476 10.365 39.5058C11.0062 39.1746 11.6182 38.8117 11.8593 38.2738C12.111 37.7174 11.9573 36.9862 11.7692 36.2629C12.5084 35.945 13.2608 35.6112 13.5734 35.0283C13.6264 34.9329 13.5893 34.8111 13.4913 34.7581C13.3959 34.7051 13.2741 34.7422 13.2211 34.8402C12.98 35.2906 12.3229 35.59 11.6659 35.8735C11.4857 35.182 11.3321 34.4905 11.5599 34.0427C11.6102 33.9447 11.5705 33.8255 11.4725 33.7751C11.3744 33.7248 11.2552 33.7645 11.2049 33.8626C10.9028 34.4534 11.091 35.2509 11.295 36.0324C10.6061 36.3345 9.94642 36.6709 9.68942 37.2353C9.42713 37.8155 9.63379 38.5626 9.87488 39.3044C9.13305 39.6833 8.37532 40.0754 8.12363 40.7139C7.87988 41.3471 8.16072 42.1208 8.46275 42.8785C7.82159 43.2573 7.21753 43.668 7.03207 44.2482C6.83602 44.8602 7.13805 45.5809 7.47187 46.2856C6.77243 46.7546 6.05444 47.2447 5.89018 47.9176C5.73122 48.5668 6.10478 49.2953 6.48895 50.0054C5.90343 50.4584 5.35765 50.938 5.25167 51.5341C5.1404 52.162 5.52986 52.8429 5.94317 53.5052C5.93787 53.5105 5.93257 53.5158 5.92727 53.5185C5.28612 54.0696 4.62642 54.6392 4.53634 55.3307C4.44891 55.9983 4.9152 56.6792 5.38944 57.3389C4.86751 57.8556 4.39062 58.3934 4.35088 59.0001C4.30849 59.636 4.76683 60.2559 5.25432 60.86C4.6794 61.4905 4.08594 62.1423 4.08594 62.855C4.08594 63.5677 4.62112 64.1532 5.16689 64.7546C4.71385 65.3189 4.31114 65.9018 4.35088 66.4979C4.39327 67.1444 4.91785 67.7087 5.47422 68.2518C5.46628 68.2624 5.45833 68.273 5.45038 68.2836C4.95494 68.9724 4.44361 69.6825 4.53634 70.3793C4.62112 71.0496 5.22253 71.6033 5.83719 72.1305C5.45833 72.7478 5.13775 73.3758 5.25432 73.9639C5.3656 74.5971 5.95112 75.0952 6.56578 75.5695C6.56048 75.5774 6.55518 75.588 6.55253 75.596C6.14717 76.3404 5.72857 77.1114 5.89283 77.7923C6.05179 78.46 6.72739 78.9368 7.40564 79.3925C7.11155 80.0443 6.87046 80.7014 7.03737 81.2763C7.23078 81.8803 7.87458 82.2989 8.53958 82.6911C8.53163 82.7149 8.52104 82.7361 8.51309 82.7599C8.20311 83.5415 7.88518 84.3496 8.12628 84.996C8.35942 85.6398 9.09596 86.0319 9.83249 86.4002C9.61524 87.0811 9.45363 87.7594 9.69472 88.2945C9.95436 88.8668 10.6326 89.2059 11.3347 89.5133C11.3321 89.5265 11.3268 89.5398 11.3241 89.553C11.1042 90.3796 10.8764 91.2354 11.2128 91.858C11.5361 92.4621 12.3309 92.7588 13.1072 93.0396C12.9747 93.7444 12.8952 94.4385 13.2052 94.9392C13.5311 95.4824 14.2384 95.7341 14.9697 95.9513C14.967 95.9752 14.9644 95.999 14.9591 96.0228C14.8452 96.8574 14.7286 97.7185 15.118 98.2854C15.5049 98.8683 16.3394 99.0723 17.1607 99.2604C17.1183 99.9652 17.1316 100.651 17.4866 101.107C17.8734 101.6 18.5941 101.769 19.3332 101.899C19.3332 101.918 19.3332 101.939 19.3332 101.958C19.32 102.808 19.3041 103.688 19.7757 104.217C20.2393 104.726 21.0977 104.816 21.9323 104.901C21.9721 105.619 22.0595 106.316 22.4834 106.74C22.9179 107.174 23.6385 107.256 24.3751 107.296C24.3751 107.304 24.3751 107.312 24.3751 107.317C24.4625 108.173 24.5526 109.058 25.0877 109.529C25.6176 109.998 26.4919 109.983 27.3344 109.969C27.3344 109.969 27.3371 109.969 27.3397 109.969C27.4669 110.682 27.6418 111.363 28.1134 111.734C28.5876 112.115 29.3082 112.115 30.0448 112.068C30.0474 112.084 30.0527 112.097 30.0554 112.113C30.2461 112.937 30.4422 113.79 31.0118 114.179C31.5894 114.59 32.4637 114.471 33.3062 114.357C33.3088 114.357 33.3115 114.357 33.3168 114.357C33.5287 115.048 33.7804 115.708 34.2838 116.018C34.8058 116.331 35.5158 116.246 36.2311 116.108C36.2364 116.119 36.2391 116.132 36.2444 116.142C36.5305 116.937 36.8273 117.759 37.4472 118.09C38.0645 118.405 38.9123 118.185 39.731 117.97C39.7363 117.97 39.7416 117.97 39.7442 117.968C40.041 118.641 40.3748 119.277 40.9259 119.526C41.4743 119.772 42.1711 119.603 42.8705 119.38C43.2547 120.135 43.6521 120.914 44.3012 121.171C44.9715 121.431 45.7928 121.102 46.5903 120.782C46.9639 121.409 47.3692 121.998 47.9415 122.18C48.5191 122.363 49.192 122.106 49.8597 121.799C50.3339 122.506 50.8267 123.238 51.5049 123.404C52.1885 123.571 52.9568 123.15 53.7013 122.745C53.7039 122.745 53.7066 122.742 53.7092 122.739C54.1596 123.32 54.6339 123.857 55.2247 123.961C55.8182 124.067 56.4567 123.725 57.0846 123.341C57.0925 123.349 57.1005 123.357 57.1058 123.367C57.6569 124.008 58.2265 124.668 58.918 124.758C59.6148 124.846 60.3248 124.337 61.0136 123.844C61.0216 123.839 61.0269 123.834 61.0348 123.828C61.5515 124.35 62.0893 124.827 62.6934 124.867C63.2948 124.909 63.8803 124.504 64.4499 124.048C65.0805 124.623 65.7296 125.214 66.4423 125.214C67.155 125.214 67.8067 124.62 68.4373 124.046C68.9804 124.48 69.5368 124.872 70.109 124.872C70.1355 124.872 70.162 124.872 70.1885 124.87C70.7979 124.83 71.3384 124.358 71.8523 123.836C71.8577 123.839 71.8629 123.844 71.8682 123.847C72.5571 124.342 73.2671 124.851 73.9639 124.761C74.6687 124.671 75.2436 124.011 75.7973 123.367C76.4226 123.751 77.0584 124.083 77.6545 123.966C78.2533 123.863 78.7328 123.33 79.1833 122.75C79.9277 123.155 80.6961 123.574 81.3743 123.407C82.0737 123.24 82.5639 122.509 83.0408 121.799C83.7058 122.104 84.3761 122.355 84.9642 122.186C85.5392 122.003 85.9445 121.412 86.3207 120.782C86.3287 120.782 86.334 120.787 86.3419 120.789C87.1235 121.097 87.9316 121.417 88.578 121.176C89.2483 120.933 89.6484 120.14 90.0325 119.372C90.7346 119.6 91.4314 119.777 91.9825 119.528C92.5283 119.282 92.8621 118.651 93.1588 117.986C93.9775 118.204 94.8227 118.424 95.44 118.092C96.0573 117.761 96.354 116.94 96.6402 116.145C96.6455 116.132 96.6508 116.119 96.6561 116.105C97.3873 116.246 98.1106 116.338 98.6272 116.021C99.1465 115.708 99.4008 115.043 99.6128 114.346C100.445 114.46 101.303 114.574 101.867 114.187C102.466 113.79 102.665 112.918 102.858 112.078C102.858 112.073 102.861 112.068 102.864 112.062C103.597 112.11 104.321 112.11 104.795 111.742C105.269 111.368 105.444 110.687 105.571 109.975C106.411 109.988 107.275 109.996 107.799 109.532C108.311 109.066 108.398 108.2 108.486 107.362C108.486 107.341 108.491 107.323 108.491 107.301C109.243 107.264 109.985 107.187 110.428 106.745C110.87 106.303 110.939 105.635 110.979 104.922C111.808 104.837 112.653 104.737 113.111 104.22C113.58 103.69 113.565 102.819 113.551 101.973C113.551 101.952 113.551 101.928 113.551 101.907C114.301 101.777 115.032 101.61 115.424 101.112C115.798 100.651 115.806 99.9519 115.761 99.2366C116.564 99.0511 117.382 98.8524 117.764 98.296C118.174 97.7185 118.055 96.8442 117.941 96.0016C117.941 95.9831 117.936 95.9646 117.933 95.946C118.667 95.7261 119.38 95.4744 119.706 94.9445C120.013 94.4332 119.936 93.7391 119.804 93.0343C120.572 92.7561 121.351 92.4594 121.674 91.858C121.992 91.2407 121.77 90.3929 121.555 89.5742C121.552 89.561 121.547 89.5451 121.545 89.5318C122.257 89.2218 122.954 88.8801 123.216 88.2998C123.463 87.7567 123.298 87.0705 123.079 86.3764C123.797 86.0108 124.515 85.6213 124.758 85.004C125.018 84.3337 124.687 83.5124 124.369 82.7149C124.369 82.7096 124.366 82.707 124.364 82.7017C125.034 82.3095 125.68 81.8909 125.874 81.2842C126.056 80.7093 125.802 80.039 125.495 79.374C126.168 78.921 126.833 78.4467 126.992 77.8003C127.159 77.1194 126.74 76.3484 126.332 75.6039L126.327 75.596C126.947 75.1217 127.543 74.6263 127.654 73.9984C127.76 73.4022 127.416 72.7611 127.029 72.1332C127.643 71.6033 128.258 71.0522 128.346 70.3872C128.436 69.6904 127.924 68.9804 127.432 68.2915C127.432 68.2915 127.429 68.2863 127.426 68.2836C127.983 67.7378 128.518 67.1735 128.56 66.5323L128.534 66.5244ZM10.0338 37.3969C10.2246 36.9756 10.781 36.6868 11.3771 36.4219C11.5387 37.0577 11.6659 37.6857 11.4725 38.1096C11.2897 38.5176 10.7704 38.8302 10.214 39.1216C10.0047 38.4725 9.83779 37.834 10.0338 37.3995V37.3969ZM8.476 40.8596C8.66675 40.3748 9.32645 40.0224 9.98351 39.686C10.1981 40.343 10.3942 41.0054 10.2246 41.4584C10.0471 41.9353 9.41918 42.3115 8.79128 42.6771C8.52634 42.0095 8.29054 41.3392 8.476 40.8596ZM7.39239 44.3701C7.53016 43.9356 8.03885 43.5859 8.59257 43.2547C8.83102 43.8641 9.03502 44.4708 8.8946 44.9159C8.77008 45.3371 8.30114 45.708 7.78715 46.0631C7.49837 45.4458 7.24932 44.8284 7.39504 44.3701H7.39239ZM6.25845 48.013C6.38297 47.5017 7.00558 47.0698 7.62554 46.6512C7.91697 47.2712 8.18721 47.8965 8.07064 48.368C7.94877 48.8688 7.36855 49.3218 6.79098 49.7616C6.45185 49.1337 6.13922 48.5005 6.25845 48.013ZM5.62524 51.603C5.70472 51.1605 6.16042 50.7552 6.66381 50.3604C6.97379 50.9406 7.24932 51.5208 7.16719 51.9845C7.09301 52.4163 6.685 52.8349 6.2293 53.2403C5.86899 52.6574 5.54046 52.0719 5.62524 51.603ZM4.9099 55.3837C4.97879 54.8511 5.5643 54.3424 6.13657 53.8497C6.49954 54.4352 6.83072 55.026 6.76713 55.5188C6.7009 56.0328 6.17632 56.5547 5.65438 57.0607C5.23843 56.4779 4.84367 55.887 4.90725 55.3837H4.9099ZM4.72709 59.0266C4.75624 58.5762 5.15365 58.1178 5.60404 57.6701C5.98291 58.2053 6.32203 58.7431 6.29024 59.2147C6.2611 59.6465 5.90608 60.1075 5.50072 60.5632C5.07681 60.036 4.6953 59.5008 4.72444 59.0292L4.72709 59.0266ZM4.46215 62.855C4.46215 62.3118 4.97349 61.7343 5.48482 61.1726C5.92197 61.7104 6.34323 62.2615 6.34323 62.749C6.34323 63.2815 5.86899 63.8697 5.40004 64.442C4.91785 63.9121 4.46215 63.369 4.46215 62.855ZM4.72709 66.4714C4.69795 66.0316 5.02912 65.5415 5.41594 65.0513C5.85309 65.5388 6.25845 66.0343 6.29024 66.4953C6.31938 66.9324 6.02795 67.4252 5.68618 67.9206C5.20134 67.4437 4.75889 66.9563 4.72709 66.4688V66.4714ZM4.9099 70.3263C4.84102 69.7911 5.29671 69.15 5.74181 68.53C6.23725 69.0095 6.71414 69.5023 6.76713 69.9792C6.83602 70.5038 6.42536 71.1556 6.02795 71.7861C5.48747 71.3198 4.97349 70.835 4.9099 70.3236V70.3263ZM5.62524 73.8924C5.54046 73.4552 5.80275 72.928 6.12333 72.3955C6.62142 72.8273 7.08771 73.2724 7.16719 73.7255C7.24138 74.1547 7.01353 74.6793 6.73534 75.2118C6.20016 74.7985 5.70737 74.3693 5.62524 73.8897V73.8924ZM6.25845 77.6969C6.13128 77.1723 6.49954 76.4809 6.86516 75.8106C7.41624 76.2292 7.95406 76.6637 8.07064 77.1273C8.19781 77.6466 7.86928 78.346 7.55136 79.0243C6.95524 78.6216 6.37767 78.203 6.25845 77.6943V77.6969ZM7.39504 81.1597C7.27052 80.7331 7.46657 80.1794 7.71827 79.6177C8.25345 79.9807 8.75683 80.3596 8.8946 80.7994C9.02442 81.2127 8.86811 81.7558 8.66146 82.3148C8.08124 81.9731 7.53546 81.6101 7.39504 81.1623V81.1597ZM9.93582 86.016C9.28671 85.6875 8.65351 85.3431 8.47865 84.8556C8.29054 84.3522 8.58197 83.6157 8.86281 82.903C8.86281 82.9004 8.86546 82.8951 8.86811 82.8924C9.46952 83.2421 10.055 83.6104 10.2273 84.0714C10.4233 84.5642 10.1769 85.3034 9.93582 86.016ZM10.0338 88.1276C9.85369 87.7329 9.98351 87.1659 10.169 86.5804C10.7439 86.8745 11.287 87.1871 11.4751 87.603C11.65 87.9872 11.5546 88.5436 11.4142 89.1185C10.8048 88.8483 10.2299 88.5542 10.0365 88.1276H10.0338ZM13.1601 92.6396C12.4713 92.3905 11.7851 92.1229 11.5387 91.6646C11.2791 91.1824 11.4804 90.4141 11.6791 89.6669C12.3256 89.9478 12.9641 90.2445 13.1999 90.6869C13.4516 91.1559 13.3032 91.9083 13.1575 92.6396H13.1601ZM14.9935 95.5486C14.3603 95.3578 13.7642 95.1353 13.5178 94.7299C13.29 94.3617 13.3509 93.7815 13.4595 93.1747C14.053 93.3973 14.612 93.6463 14.8505 94.0411C15.0783 94.3988 15.0598 94.9578 14.9935 95.5486ZM17.1634 98.8418C17.1634 98.8418 17.1634 98.8498 17.1634 98.8551C16.4401 98.6881 15.7195 98.5 15.4254 98.0602C15.1207 97.6178 15.2293 96.8309 15.3327 96.0732C15.3327 96.0705 15.3327 96.0652 15.3327 96.0626C16.0109 96.2586 16.6865 96.4732 16.9779 96.8813C17.2773 97.3184 17.2217 98.0947 17.166 98.8418H17.1634ZM17.7727 100.858C17.5105 100.522 17.4946 99.9519 17.5264 99.3478C18.1357 99.4936 18.7159 99.6711 18.9968 100.018C19.2617 100.347 19.3068 100.9 19.3094 101.491C18.6682 101.377 18.0615 101.226 17.7727 100.858ZM20.0433 103.947C19.6777 103.534 19.6909 102.734 19.7042 101.96C20.4142 102.077 21.1269 102.209 21.4687 102.593C21.821 102.993 21.8555 103.754 21.8873 104.493C21.1454 104.416 20.3957 104.329 20.0459 103.945L20.0433 103.947ZM22.7377 106.456C22.4225 106.141 22.343 105.558 22.3059 104.941C22.9285 105.012 23.5167 105.121 23.8319 105.436C24.126 105.741 24.2346 106.297 24.3035 106.891C23.6677 106.856 23.061 106.779 22.7377 106.456ZM25.3262 109.23C24.9155 108.865 24.8281 108.078 24.7513 107.309C25.4746 107.338 26.2111 107.381 26.6006 107.725C27.0006 108.08 27.1278 108.835 27.2497 109.569C26.4972 109.582 25.7316 109.585 25.3288 109.227L25.3262 109.23ZM28.3359 111.421C27.9835 111.146 27.8299 110.576 27.716 109.964C28.3253 109.964 28.9055 110.004 29.2553 110.277C29.5997 110.547 29.7772 111.09 29.9229 111.673C29.2897 111.713 28.6856 111.705 28.3333 111.421H28.3359ZM31.2132 113.851C30.7707 113.549 30.5906 112.78 30.421 112.036C31.1469 111.978 31.8914 111.927 32.3153 112.219C32.7472 112.515 32.9671 113.249 33.1764 113.967C32.4266 114.071 31.6583 114.166 31.2132 113.851ZM34.464 115.673C34.0931 115.446 33.8758 114.895 33.6904 114.301C34.2891 114.23 34.864 114.2 35.2376 114.426C35.6085 114.648 35.8523 115.165 36.0669 115.726C35.4469 115.84 34.8508 115.907 34.464 115.676V115.673ZM37.6062 117.735C37.1266 117.478 36.859 116.744 36.5994 116.026C37.3147 115.883 38.0433 115.745 38.5043 115.991C38.9653 116.238 39.2674 116.921 39.5588 117.594C38.8276 117.785 38.0778 117.976 37.6062 117.735ZM41.0663 119.16C40.6583 118.975 40.3722 118.445 40.1125 117.865C40.7033 117.719 41.2756 117.621 41.6704 117.798C42.0678 117.978 42.3751 118.477 42.6612 119.017C42.0572 119.205 41.4716 119.343 41.0663 119.157V119.16ZM44.4231 120.797C43.9277 120.601 43.5726 119.923 43.2309 119.25C43.9303 119.02 44.6456 118.789 45.1305 118.969C45.6153 119.149 45.9968 119.796 46.3651 120.432C45.6577 120.715 44.9318 120.993 44.4231 120.797ZM48.0395 121.799C47.613 121.664 47.2685 121.171 46.9427 120.631C47.5096 120.413 48.0634 120.244 48.4793 120.376C48.8926 120.498 49.2582 120.956 49.608 121.46C49.0331 121.722 48.4661 121.934 48.0395 121.796V121.799ZM51.5765 123.015C51.0598 122.888 50.6227 122.255 50.1988 121.624C50.8585 121.311 51.5341 120.999 52.0375 121.121C52.5409 121.245 52.9992 121.833 53.4417 122.416C52.7767 122.777 52.0931 123.142 51.5738 123.012L51.5765 123.015ZM55.2724 123.569C54.8352 123.492 54.4325 123.044 54.0431 122.546C54.5809 122.263 55.1161 122.029 55.5479 122.104C55.9771 122.178 56.3931 122.58 56.7958 123.034C56.2527 123.365 55.7095 123.646 55.2724 123.569ZM58.9471 124.364C58.4146 124.295 57.9006 123.704 57.4052 123.129C58.0278 122.742 58.6636 122.358 59.1882 122.427C59.7022 122.493 60.2268 123.02 60.7328 123.54C60.1155 123.982 59.4823 124.435 58.9471 124.364ZM62.696 124.467C62.2456 124.438 61.7899 124.04 61.3422 123.593C61.8403 123.248 62.341 122.957 62.7755 122.981C63.2073 123.01 63.671 123.367 64.1267 123.77C63.6313 124.159 63.1358 124.491 62.696 124.464V124.467ZM66.4184 124.811C65.8753 124.811 65.3004 124.3 64.7387 123.791C65.311 123.325 65.8991 122.851 66.4184 122.851C66.9377 122.851 67.5338 123.32 68.1008 123.786C67.5391 124.297 66.9616 124.811 66.4184 124.811ZM70.1408 124.467C69.701 124.493 69.2056 124.159 68.7128 123.77C69.1685 123.367 69.6269 123.01 70.0587 122.983C70.5012 122.959 70.9992 123.253 71.5 123.598C71.0522 124.046 70.5965 124.438 70.1382 124.467H70.1408ZM73.8897 124.364C73.3572 124.432 72.7267 123.985 72.112 123.545C72.618 123.02 73.1426 122.482 73.6513 122.427C74.1706 122.358 74.8117 122.758 75.4343 123.15C74.9416 123.722 74.4329 124.295 73.8924 124.364H73.8897ZM77.5618 123.569C77.1141 123.656 76.5815 123.386 76.0411 123.057C76.4464 122.596 76.865 122.18 77.2889 122.106C77.7234 122.029 78.2639 122.268 78.807 122.554C78.4176 123.049 78.0096 123.492 77.5618 123.569ZM81.2604 123.015C80.7437 123.142 80.0681 122.784 79.4058 122.427C79.8483 121.844 80.3039 121.248 80.7967 121.123C81.3054 120.999 81.989 121.311 82.654 121.624C82.2327 122.255 81.7929 122.888 81.2604 123.018V123.015ZM84.8291 121.799C84.3893 121.926 83.8223 121.719 83.2474 121.46C83.5892 120.962 83.9495 120.511 84.3602 120.379C84.7867 120.246 85.3484 120.413 85.9233 120.631C85.5975 121.174 85.2504 121.666 84.8291 121.802V121.799ZM88.4191 120.797C87.9236 120.983 87.2056 120.705 86.5035 120.426C86.8718 119.793 87.2533 119.149 87.7382 118.969C88.2204 118.779 88.9304 119.009 89.6272 119.24C89.2854 119.92 88.9277 120.609 88.4164 120.797H88.4191ZM91.7971 119.16C91.389 119.346 90.8009 119.202 90.1942 119.009C90.4724 118.471 90.7744 117.978 91.1665 117.801C91.5666 117.621 92.1468 117.727 92.7455 117.878C92.4885 118.45 92.2024 118.977 91.7971 119.16ZM95.2307 117.735C94.7617 117.986 94.0252 117.804 93.2993 117.61C93.5907 116.932 93.8954 116.24 94.359 115.991C94.8121 115.748 95.5301 115.877 96.2401 116.018C95.9805 116.736 95.7102 117.475 95.2307 117.732V117.735ZM98.3994 115.673C98.0152 115.909 97.4058 115.838 96.7726 115.719C96.9846 115.159 97.2283 114.646 97.6019 114.42C97.9755 114.182 98.5716 114.214 99.1889 114.288C99.0034 114.887 98.7862 115.44 98.3967 115.673H98.3994ZM101.624 113.851C101.194 114.145 100.442 114.055 99.7055 113.954C99.9095 113.247 100.124 112.521 100.551 112.219C100.975 111.927 101.714 111.972 102.44 112.025C102.267 112.778 102.085 113.543 101.624 113.851ZM104.527 111.421C104.175 111.694 103.568 111.699 102.932 111.662C103.076 111.085 103.25 110.544 103.582 110.277C103.926 109.998 104.522 109.961 105.145 109.964C105.033 110.576 104.88 111.146 104.527 111.421ZM108.067 107.315C107.988 108.078 107.908 108.87 107.511 109.23C107.113 109.582 106.361 109.582 105.616 109.572C105.738 108.838 105.865 108.08 106.265 107.725C106.647 107.386 107.36 107.341 108.067 107.312V107.315ZM110.126 106.456C109.794 106.787 109.167 106.862 108.515 106.893C108.586 106.3 108.698 105.743 109.002 105.441C109.323 105.129 109.93 105.028 110.557 104.957C110.52 105.569 110.438 106.144 110.126 106.456ZM112.794 103.947C112.446 104.339 111.713 104.437 110.976 104.512C111.008 103.767 111.04 102.996 111.395 102.593C111.731 102.212 112.433 102.079 113.133 101.963C113.133 101.963 113.133 101.965 113.133 101.968C113.146 102.736 113.159 103.531 112.791 103.945L112.794 103.947ZM115.091 100.858C114.797 101.232 114.179 101.383 113.527 101.497C113.527 100.908 113.575 100.355 113.84 100.018C114.126 99.6525 114.72 99.4724 115.345 99.3214C115.379 99.936 115.366 100.516 115.091 100.858ZM117.414 98.0602C117.125 98.4815 116.418 98.6643 115.708 98.8286C115.708 98.8286 115.708 98.8259 115.708 98.8233C115.65 98.0814 115.591 97.3158 115.888 96.8813C116.169 96.4706 116.845 96.2533 117.525 96.052C117.629 96.8177 117.737 97.6072 117.417 98.0602H117.414ZM121.362 38.1069C121.171 37.683 121.303 37.0524 121.468 36.4139C122.072 36.6815 122.636 36.973 122.827 37.3969C123.023 37.8314 122.851 38.4699 122.639 39.1163C122.074 38.8275 121.547 38.5149 121.362 38.1069ZM122.639 41.4531C122.459 40.9974 122.655 40.3377 122.872 39.678C123.529 40.0092 124.181 40.3589 124.361 40.8543C124.536 41.3233 124.297 41.9909 124.035 42.6533C123.42 42.2956 122.814 41.9221 122.639 41.4531ZM123.942 44.9132C123.802 44.4575 124.001 43.8482 124.236 43.2335C124.803 43.57 125.328 43.9276 125.468 44.3648C125.603 44.8311 125.36 45.4458 125.076 46.0631C124.557 45.708 124.077 45.3371 123.942 44.9132ZM124.793 48.3945C124.676 47.915 124.946 47.2818 125.24 46.6512C125.852 47.0619 126.457 47.4911 126.581 48.0104C126.7 48.4979 126.39 49.1258 126.054 49.751C125.487 49.3192 124.915 48.8741 124.795 48.3945H124.793ZM125.67 51.9845C125.588 51.5182 125.866 50.9327 126.178 50.3498C126.692 50.7525 127.159 51.1685 127.238 51.6321C127.331 52.1064 127.016 52.6866 126.658 53.2668C126.181 52.8508 125.746 52.4216 125.67 51.9845ZM126.094 55.5426C126.03 55.0551 126.38 54.459 126.748 53.8709C127.307 54.353 127.858 54.8538 127.924 55.3837C127.991 55.8844 127.596 56.4752 127.182 57.0554C126.666 56.5573 126.149 56.0434 126.094 55.5453V55.5426ZM126.547 59.212C126.517 58.7378 126.859 58.1973 127.238 57.6621C127.699 58.1178 128.107 58.5868 128.136 59.0531C128.168 59.5273 127.781 60.0599 127.355 60.5844C126.941 60.1208 126.573 59.6518 126.544 59.212H126.547ZM126.52 62.7755C126.52 62.2774 126.936 61.7316 127.371 61.1964C127.874 61.7502 128.375 62.3198 128.375 62.855C128.375 63.3902 127.922 63.9068 127.445 64.434C126.984 63.8697 126.52 63.2868 126.52 62.7755ZM119.343 94.7299C119.099 95.1247 118.495 95.3472 117.859 95.538C117.79 94.9551 117.769 94.3988 117.989 94.0358C118.227 93.6384 118.8 93.3893 119.404 93.1641C119.515 93.7709 119.573 94.3511 119.346 94.7299H119.343ZM121.298 91.6672C121.054 92.1203 120.381 92.3852 119.703 92.6316C119.557 91.9057 119.409 91.1559 119.661 90.6896C119.894 90.2551 120.517 89.961 121.15 89.6855C121.343 90.4273 121.542 91.1903 121.298 91.6672ZM122.829 88.1276C122.633 88.5621 122.043 88.8589 121.423 89.1317C121.282 88.5489 121.19 87.9899 121.364 87.6004C121.558 87.1765 122.112 86.8533 122.694 86.5512C122.88 87.1474 123.012 87.7249 122.829 88.125V88.1276ZM124.361 84.853C124.175 85.3193 123.561 85.6637 122.928 85.9869C122.694 85.2822 122.456 84.5562 122.639 84.0661C122.808 83.6104 123.391 83.2448 123.99 82.8951C124.273 83.6077 124.56 84.339 124.361 84.8503V84.853ZM125.468 81.1544C125.323 81.6101 124.774 81.9731 124.189 82.3175C123.974 81.7558 123.81 81.2047 123.94 80.7941C124.069 80.349 124.586 79.9622 125.132 79.5886C125.394 80.1635 125.603 80.7278 125.466 81.1544H125.468ZM126.578 77.6969C126.459 78.1844 125.89 78.6004 125.296 79.0004C124.981 78.3381 124.668 77.6598 124.79 77.1564C124.907 76.6822 125.434 76.2504 125.98 75.8317C126.34 76.4967 126.703 77.1776 126.576 77.6969H126.578ZM127.238 73.9215C127.156 74.3878 126.65 74.817 126.112 75.233C125.829 74.6925 125.593 74.16 125.67 73.7255C125.749 73.2645 126.205 72.8194 126.698 72.3875C127.031 72.9333 127.315 73.4791 127.238 73.9215ZM127.927 70.3263C127.861 70.8297 127.336 71.3119 126.793 71.7808C126.406 71.1609 126.03 70.5276 126.096 70.0057C126.16 69.5235 126.626 69.0334 127.114 68.5538C127.553 69.1659 127.996 69.7964 127.927 70.3236V70.3263ZM127.167 67.9471C126.817 67.4437 126.517 66.9404 126.544 66.4979C126.573 66.0316 126.984 65.5362 127.424 65.046C127.821 65.5468 128.163 66.0502 128.134 66.4979C128.102 66.9801 127.651 67.4676 127.164 67.9471H127.167Z" fill="#DCC05F"/>
<path d="M15.3914 27.7372C15.455 27.7372 15.5159 27.7081 15.5557 27.6498C15.8497 27.2206 16.5783 27.0378 17.3016 26.8709C17.352 27.5491 17.3784 28.2221 17.1082 28.6168C17.0473 28.7069 17.0685 28.8315 17.1612 28.8924C17.2513 28.9533 17.3758 28.9321 17.4367 28.8394C17.7918 28.3201 17.752 27.5438 17.6937 26.7782C18.3958 26.6113 19.0741 26.4046 19.4423 25.9357C19.8291 25.4429 19.8477 24.6878 19.8397 23.9354C20.6372 23.8029 21.4559 23.6625 21.8983 23.1617C22.3196 22.6848 22.3779 21.9139 22.4097 21.1482C23.125 21.0714 23.8244 20.9574 24.2457 20.5494C24.6961 20.1123 24.8021 19.3492 24.8842 18.5809C25.6817 18.5491 26.4977 18.5041 26.9958 18.0643C27.47 17.6457 27.621 16.8932 27.7456 16.1382C28.4662 16.1435 29.1762 16.109 29.6372 15.7381C30.1221 15.346 30.3181 14.6015 30.4903 13.8597C31.2958 13.918 32.1277 13.9763 32.6761 13.6C33.1821 13.2397 33.4206 12.5217 33.6325 11.7984C34.3585 11.8912 35.0765 11.9415 35.5772 11.6209C36.1203 11.2951 36.4065 10.5797 36.6687 9.85908C37.4503 10.0154 38.2478 10.1611 38.828 9.84848C39.3764 9.5544 39.7023 8.87085 40.0043 8.17936C40.7117 8.36482 41.4244 8.51319 41.9702 8.26414C42.5451 8.0045 42.9107 7.3183 43.2578 6.62946C44.0182 6.8838 44.7945 7.1302 45.4012 6.89175C45.9761 6.67715 46.3815 6.04129 46.763 5.38954C47.4518 5.65448 48.1433 5.88233 48.7288 5.70217C49.3302 5.51141 49.778 4.87821 50.2045 4.2397C50.9225 4.57617 51.6591 4.9047 52.2923 4.75103C52.8831 4.60267 53.3626 4.0145 53.821 3.41309C54.4754 3.76546 55.143 4.09133 55.7497 3.98536C56.3697 3.87408 56.8943 3.29386 57.4003 2.7057C58.068 3.12695 58.7542 3.54026 59.3927 3.45548C60.002 3.38659 60.5505 2.85671 61.0777 2.31358C61.687 2.74809 62.315 3.15079 62.9323 3.1137C63.5549 3.07396 64.1377 2.57323 64.7021 2.05924C65.3061 2.55203 65.9261 3.03422 66.5752 3.03422C67.2243 3.03422 67.8178 2.56263 68.4139 2.07779C68.9729 2.58382 69.5478 3.07396 70.1651 3.1137C70.7878 3.15344 71.4263 2.73749 72.0462 2.29504C72.5787 2.84081 73.1325 3.37334 73.7551 3.45548C74.3883 3.53761 75.0612 3.15609 75.7156 2.74809C76.2137 3.32301 76.733 3.87673 77.3503 3.98271C77.9623 4.09133 78.6406 3.75751 79.3029 3.39719C79.7666 4.0039 80.2514 4.59737 80.8608 4.74838C81.4754 4.8994 82.1908 4.58412 82.8902 4.25295C83.3221 4.89145 83.7751 5.52201 84.3712 5.69687C84.9541 5.88233 85.6588 5.63593 86.353 5.36305C86.7372 6.02275 87.1452 6.6692 87.728 6.88645C88.3268 7.109 89.0872 6.87321 89.8317 6.62681C90.184 7.31301 90.5576 7.99655 91.1325 8.25884C91.6836 8.50789 92.4069 8.35952 93.1249 8.17406C93.4269 8.86556 93.7528 9.5491 94.3012 9.84318C94.8761 10.1505 95.663 10.0101 96.434 9.85643C96.6963 10.5744 96.9824 11.2898 97.5255 11.6156C98.0421 11.9256 98.7601 11.8673 99.4808 11.7746C99.698 12.5111 99.9418 13.245 100.458 13.5974C100.994 13.963 101.804 13.91 102.594 13.8491C102.769 14.5989 102.967 15.3433 103.468 15.7355C103.945 16.109 104.66 16.1408 105.384 16.1329C105.511 16.8853 105.662 17.6404 106.136 18.059C106.632 18.4988 107.445 18.5412 108.242 18.5756C108.322 19.3333 108.423 20.0937 108.854 20.5388C109.27 20.968 109.988 21.0872 110.722 21.1667C110.757 21.9245 110.815 22.6848 111.234 23.1564C111.673 23.6519 112.479 23.7949 113.266 23.9248C113.255 24.6851 113.274 25.4455 113.663 25.9304C114.034 26.3914 114.723 26.5901 115.428 26.757C115.372 27.5306 115.335 28.3122 115.692 28.8341C115.732 28.8897 115.793 28.9215 115.857 28.9215C115.896 28.9215 115.934 28.9109 115.968 28.8871C116.058 28.8262 116.082 28.7016 116.021 28.6115C115.748 28.2115 115.772 27.5332 115.82 26.8497C116.54 27.0166 117.256 27.2021 117.547 27.6419C117.608 27.7319 117.73 27.7584 117.823 27.6975C117.913 27.6366 117.939 27.512 117.878 27.422C117.491 26.8444 116.665 26.6377 115.849 26.4496C115.904 25.6707 115.928 24.8918 115.539 24.3884C115.149 23.8903 114.418 23.7208 113.668 23.5936C113.679 22.7935 113.668 21.988 113.223 21.49C112.768 20.9919 111.928 20.8965 111.104 20.8117C111.069 20.0195 111.008 19.2221 110.542 18.7558C110.097 18.3107 109.355 18.2338 108.603 18.1994C108.518 17.4072 108.404 16.6151 107.911 16.1779C107.395 15.7196 106.549 15.7249 105.723 15.7381C105.59 14.9539 105.431 14.1697 104.912 13.7617C104.422 13.3669 103.669 13.3801 102.906 13.4331C102.726 12.6621 102.522 11.8938 101.987 11.5282C101.425 11.1308 100.588 11.2288 99.7696 11.3401C99.5444 10.5771 99.2953 9.81934 98.7416 9.47757C98.1958 9.15169 97.446 9.26032 96.6963 9.40603C96.426 8.6642 96.1293 7.92767 95.5517 7.61769C94.9582 7.31301 94.1502 7.50641 93.3607 7.71307C93.0427 6.97653 92.6983 6.24265 92.0969 5.97241C91.5167 5.71012 90.7748 5.91412 90.0357 6.15522C89.678 5.45842 89.2938 4.77488 88.6951 4.53908C88.0619 4.29534 87.2882 4.57882 86.5278 4.87821C86.1278 4.18936 85.7012 3.51376 85.0786 3.31506C84.464 3.119 83.7433 3.42368 83.0333 3.75751C82.5882 3.10046 82.1219 2.4593 81.4887 2.30564C80.8449 2.14667 80.1216 2.51494 79.4169 2.89645C78.9347 2.26589 78.4313 1.64858 77.7954 1.53466C77.1622 1.42074 76.4734 1.82344 75.8004 2.2394C75.2758 1.63269 74.7327 1.03392 74.0783 0.949142C73.4213 0.864361 72.751 1.31476 72.0992 1.78105C71.5481 1.21673 70.9759 0.673604 70.3294 0.631213C69.6803 0.591472 69.0497 1.06307 68.4351 1.56115C67.839 1.02068 67.2243 0.496094 66.554 0.496094C65.8837 0.496094 65.2823 1.00743 64.6941 1.53996C64.0927 1.04982 63.4701 0.586173 62.8316 0.628564C62.1692 0.670954 61.589 1.22468 61.0353 1.79695C60.3756 1.32536 59.6974 0.861711 59.0324 0.946492C58.3806 1.02862 57.8428 1.59825 57.3261 2.19171C56.6664 1.78105 55.9935 1.40484 55.3656 1.52936C54.7112 1.64329 54.1998 2.26589 53.7124 2.9044C52.9997 2.51759 52.2658 2.14137 51.6167 2.30034C50.9729 2.454 50.5066 3.08456 50.0668 3.73896C49.3726 3.41838 48.6679 3.1349 48.0532 3.31241C47.4253 3.51376 46.9961 4.20261 46.5908 4.8994C45.8277 4.59737 45.0435 4.30064 44.4156 4.53378C43.7983 4.75898 43.4141 5.44253 43.0565 6.14727C42.3332 5.90882 41.6046 5.71277 41.0376 5.96976C40.4388 6.24 40.0944 6.97388 39.7765 7.70777C38.9764 7.49581 38.1577 7.29446 37.5536 7.61769C36.9787 7.92767 36.682 8.66155 36.4118 9.40338C35.6646 9.25767 34.9201 9.15169 34.3929 9.47757C33.8206 9.81934 33.5716 10.5877 33.3464 11.3586C32.5251 11.2474 31.6852 11.1414 31.1262 11.5229C30.5751 11.8912 30.3632 12.6595 30.1804 13.4384C29.4359 13.3907 28.7046 13.3854 28.2251 13.7564C27.7032 14.1644 27.5442 14.9486 27.4117 15.7355C26.5745 15.7222 25.7161 15.7143 25.1942 16.1779C24.7146 16.6151 24.6087 17.4072 24.5265 18.1968C23.7741 18.2338 23.0349 18.3107 22.5925 18.7531C22.1288 19.2168 22.0652 20.001 22.0308 20.7852C21.1962 20.87 20.3431 20.9707 19.8821 21.49C19.4397 21.988 19.4291 22.7961 19.4397 23.5962C18.7005 23.7234 17.9825 23.8956 17.5983 24.3858C17.1903 24.8918 17.2168 25.6787 17.2751 26.4655C16.4591 26.6536 15.6192 26.8523 15.2298 27.4193C15.1688 27.5094 15.19 27.6339 15.2828 27.6949C15.3172 27.7187 15.357 27.7293 15.394 27.7293L15.3914 27.7372ZM113.66 24.0016C114.312 24.1155 114.929 24.2665 115.224 24.6401C115.515 25.0163 115.502 25.684 115.457 26.3649C114.842 26.2165 114.254 26.0416 113.973 25.6919C113.676 25.3236 113.655 24.6692 113.66 24.0016ZM112.926 21.7628C113.258 22.1364 113.279 22.8306 113.271 23.5353C112.569 23.4187 111.867 23.2863 111.53 22.9047C111.212 22.5444 111.151 21.89 111.122 21.2197C111.853 21.2939 112.585 21.3866 112.929 21.7628H112.926ZM110.259 19.0419C110.611 19.3943 110.672 20.0778 110.704 20.7746C110.065 20.7031 109.453 20.5971 109.138 20.2739C108.807 19.9321 108.711 19.2751 108.642 18.6048C109.297 18.6392 109.927 18.7107 110.259 19.0419ZM107.644 16.4799C108.017 16.8111 108.123 17.4894 108.197 18.1862C107.49 18.157 106.777 18.1093 106.398 17.7728C106.038 17.4523 105.898 16.8032 105.786 16.1382C106.518 16.1276 107.254 16.1329 107.646 16.4799H107.644ZM104.66 14.0769C105.055 14.3869 105.201 15.0572 105.317 15.7461C104.684 15.7487 104.075 15.7169 103.715 15.4334C103.33 15.1314 103.15 14.4902 102.994 13.8305C103.656 13.7855 104.295 13.7828 104.66 14.0769ZM101.757 11.8594C102.159 12.1349 102.342 12.792 102.501 13.4676C101.799 13.5206 101.092 13.5603 100.681 13.2795C100.289 13.0119 100.072 12.3813 99.8782 11.7322C100.601 11.6342 101.327 11.5573 101.754 11.8594H101.757ZM98.5323 9.82464C98.9456 10.079 99.1681 10.7281 99.3669 11.3984C98.7363 11.4779 98.1243 11.5203 97.7322 11.2845C97.3189 11.0354 97.0619 10.4234 96.8314 9.7902C97.4858 9.66568 98.1243 9.57824 98.5323 9.82464ZM95.3636 7.97536C95.7981 8.2085 96.0604 8.83906 96.2989 9.49082C95.6153 9.62593 94.9291 9.74251 94.492 9.50671C94.0733 9.28151 93.7846 8.69864 93.517 8.08663C94.2138 7.90647 94.9159 7.74486 95.3636 7.97536ZM91.93 6.33803C92.383 6.54203 92.6851 7.16994 92.9659 7.81904C92.3353 7.97801 91.7154 8.09988 91.2994 7.91177C90.8596 7.71307 90.5284 7.1249 90.2185 6.51819C90.8623 6.31153 91.4981 6.14462 91.93 6.34068V6.33803ZM88.5467 4.91265C88.9997 5.09016 89.3362 5.67303 89.6515 6.28504C88.9918 6.50229 88.3241 6.69834 87.8684 6.52878C87.426 6.36452 87.0683 5.81079 86.7292 5.23058C87.3969 4.96564 88.0698 4.72719 88.5493 4.91265H88.5467ZM84.9568 3.69657C85.4257 3.84494 85.7993 4.42516 86.1516 5.02922C85.5423 5.26767 84.9356 5.47167 84.4905 5.33125C84.0348 5.19613 83.6374 4.65831 83.2558 4.09398C83.8758 3.80255 84.4958 3.55085 84.9568 3.69657ZM81.3933 2.6951C81.8676 2.81167 82.2756 3.35745 82.6677 3.93502C82.0504 4.22645 81.4277 4.49139 80.9588 4.37747C80.4952 4.26354 80.0713 3.75751 79.6606 3.22233C80.2832 2.88585 80.9111 2.57852 81.396 2.69775L81.3933 2.6951ZM77.7239 1.92942C78.2008 2.0142 78.6379 2.53878 79.0618 3.09251C78.4763 3.40514 77.8881 3.68597 77.4219 3.60649C76.9529 3.52436 76.4999 3.05277 76.0601 2.54938C76.6509 2.18376 77.2443 1.84729 77.7239 1.92942ZM74.0227 1.34655C74.5181 1.41014 74.9924 1.92147 75.456 2.454C74.8784 2.80902 74.2956 3.13225 73.8107 3.07131C73.3338 3.00773 72.849 2.55203 72.3774 2.07249C72.9497 1.66448 73.5272 1.28297 74.0253 1.34655H74.0227ZM70.3003 1.03127C70.7878 1.06307 71.2832 1.52671 71.768 2.0195C71.2223 2.40631 70.6685 2.75868 70.1943 2.72689C69.7253 2.6951 69.222 2.27914 68.7292 1.83404C69.267 1.39954 69.8128 0.99948 70.3003 1.02862V1.03127ZM66.5514 0.898803C67.0574 0.898803 67.5952 1.3439 68.1198 1.81815C67.5926 2.2447 67.0547 2.64741 66.5779 2.64741C66.101 2.64741 65.5366 2.23675 65.0041 1.7996C65.5234 1.33066 66.0506 0.898803 66.5514 0.898803ZM62.8554 1.03127C63.335 1.00213 63.8675 1.39159 64.3947 1.81815C63.894 2.27119 63.3853 2.69775 62.9084 2.72954C62.4368 2.76133 61.8937 2.41956 61.3585 2.03805C61.8487 1.53466 62.3521 1.06307 62.8554 1.03127ZM59.08 1.34655C59.5781 1.28297 60.1716 1.67508 60.7518 2.09103C60.2855 2.56793 59.8086 3.02097 59.345 3.07396C58.8575 3.13755 58.2534 2.78518 57.6626 2.41426C58.1157 1.89498 58.5846 1.41279 59.0774 1.3492L59.08 1.34655ZM55.4345 1.92942C55.9061 1.83669 56.4836 2.14932 57.0585 2.50434C56.6108 3.02097 56.1498 3.52171 55.6782 3.60384C55.2146 3.68332 54.637 3.41309 54.0621 3.10311C54.4913 2.54408 54.9364 2.0142 55.4345 1.92677V1.92942ZM51.7094 2.6951C52.1995 2.57587 52.838 2.89115 53.466 3.23293C53.0632 3.76016 52.6446 4.26354 52.1969 4.37482C51.7121 4.49404 51.0656 4.21321 50.4297 3.91647C50.8166 3.34685 51.2246 2.81167 51.7094 2.6951ZM48.1671 3.69922C48.6281 3.56675 49.2322 3.80255 49.8389 4.08074C49.4601 4.64241 49.0653 5.18819 48.6096 5.33125C48.1645 5.46902 47.5684 5.28091 46.9643 5.05042C47.322 4.4384 47.6982 3.84759 48.1671 3.69922ZM44.5507 4.91265C45.0276 4.73514 45.7112 4.98683 46.3868 5.25177C46.0503 5.82404 45.6953 6.36452 45.2555 6.52878C44.7892 6.71159 44.1083 6.50494 43.4353 6.27974C43.7479 5.66508 44.0871 5.07956 44.5507 4.91265ZM41.1992 6.33803C41.6231 6.14727 42.2431 6.30888 42.8736 6.51289C42.5663 7.1196 42.2404 7.71307 41.8033 7.90912C41.39 8.09458 40.7833 7.97536 40.1633 7.81639C40.4441 7.16994 40.7488 6.54203 41.1992 6.33803ZM37.7391 7.97536C38.1948 7.73161 38.9048 7.89852 39.6122 8.08398C39.3446 8.69599 39.0559 9.28151 38.6372 9.50671C38.1948 9.74516 37.498 9.62593 36.8039 9.48816C37.0423 8.83641 37.3046 8.2085 37.7391 7.97536ZM34.5969 9.82464C34.9917 9.58354 35.6249 9.66568 36.274 9.78755C36.0408 10.4208 35.7865 11.0354 35.3679 11.2871C34.9864 11.5309 34.377 11.4938 33.7438 11.4143C33.9425 10.7387 34.1651 10.079 34.5969 9.82199V9.82464ZM31.3461 11.8594C31.77 11.5679 32.5039 11.6527 33.2325 11.7508C33.0444 12.3893 32.8324 13.0039 32.4482 13.2795C32.0296 13.5656 31.3011 13.5259 30.5804 13.4729C30.742 12.792 30.9301 12.1349 31.3461 11.8594ZM28.4688 14.0769C28.8239 13.7987 29.4438 13.7987 30.0876 13.8385C29.934 14.4929 29.7591 15.1367 29.3882 15.4361C29.0411 15.7143 28.4397 15.7514 27.8118 15.7487C27.9284 15.0599 28.0741 14.3869 28.4688 14.0796V14.0769ZM25.4591 16.4799C25.8539 16.1302 26.6037 16.1276 27.3455 16.1382C27.2316 16.8032 27.0938 17.4523 26.7335 17.7728C26.352 18.112 25.6366 18.157 24.9266 18.1862C25.0008 17.4894 25.1015 16.8085 25.4591 16.4799ZM22.8707 19.0419C23.2018 18.7107 23.8297 18.6366 24.4815 18.6048C24.41 19.2804 24.3093 19.9401 23.9675 20.2686C23.6496 20.5786 23.0508 20.6792 22.4256 20.7508C22.4574 20.0619 22.5209 19.389 22.868 19.0419H22.8707ZM20.1762 21.7628C20.5259 21.3654 21.2704 21.2727 22.0096 21.1959C21.9778 21.8715 21.9222 22.5391 21.5989 22.9047C21.2572 23.2915 20.5418 23.4214 19.8318 23.5406C19.8238 22.8385 19.8397 22.1417 20.1736 21.7655L20.1762 21.7628ZM17.9057 24.6401C18.1945 24.2718 18.8012 24.1208 19.4423 24.0069C19.4503 24.6692 19.4238 25.3157 19.1297 25.6919C18.8489 26.0496 18.2739 26.2297 17.6646 26.3781C17.6142 25.6919 17.601 25.019 17.9057 24.6401Z" fill="#DCC05F"/>
<path d="M40.4327 27.4855L37.3594 22.8226L42.0488 19.6963L42.6052 20.5176L38.9755 22.9286L39.7968 24.1473L41.7574 22.8491L42.3138 23.6969L40.3532 24.9951L41.5189 26.7702L40.4327 27.4855Z" fill="#DCC05F"/>
<path d="M46.3906 23.6438L47.2119 17.2852L48.3777 16.8083L53.4645 20.756L52.1133 21.3123L51.0271 20.438L47.7418 21.7892L47.6093 23.1669L46.3906 23.6438ZM47.8478 20.65L50.1263 19.7227L48.1392 18.0801L47.8478 20.65Z" fill="#DCC05F"/>
<path d="M56.9624 19.9346L56.0352 14.4239L57.3069 14.2119L58.0752 18.6894L62.2083 18.0006L62.3672 19.0338L56.9624 19.9346Z" fill="#DCC05F"/>
<path d="M71.0327 14.5563L67.5355 14.3708L67.35 17.8945L70.8473 18.08L70.9267 16.8878L72.1985 17.2322L72.172 17.8945C72.1455 18.3979 72.0395 18.7424 71.8275 18.9278C71.6156 19.1133 71.2447 19.1663 70.7148 19.1398L67.3765 18.9543C66.8467 18.9278 66.4757 18.8218 66.2903 18.6099C66.1048 18.4244 66.0253 18.0535 66.0518 17.5501L66.2108 14.6093C66.2373 14.1059 66.3433 13.7615 66.5552 13.576C66.7672 13.3906 67.1381 13.3376 67.668 13.3641L71.0062 13.5495C71.5361 13.576 71.907 13.682 72.0925 13.8939C72.2779 14.0794 72.3574 14.4503 72.3309 14.9537L72.3044 15.4836L71.0062 15.6161L71.0327 14.5563Z" fill="#DCC05F"/>
<path d="M77.6285 15.8545C77.7875 15.3776 77.9729 15.0597 78.2114 14.9537C78.4498 14.8212 78.8207 14.8477 79.3506 15.0067L83.2717 16.2254C83.8016 16.3844 84.1195 16.5963 84.2255 16.8083C84.358 17.0467 84.3315 17.3912 84.199 17.8946L83.3247 20.7029C83.1658 21.1798 82.9803 21.4977 82.7419 21.6037C82.5034 21.7097 82.1325 21.7097 81.6026 21.5507L77.6815 20.332C77.1516 20.173 76.8337 19.9611 76.7277 19.7491C76.5952 19.5107 76.6217 19.1663 76.7542 18.6629L77.6285 15.8545ZM77.9199 19.3252L82 20.5969L83.0598 17.2322L78.9797 15.9605L77.9199 19.3252Z" fill="#DCC05F"/>
<path d="M87.0039 23.8821L89.9712 19.1396L90.7131 19.6165L92.3027 24.4914C92.3557 24.6504 92.4087 24.8094 92.4352 24.9418C92.4617 25.0743 92.4882 25.2068 92.5147 25.3393C92.6736 25.0743 92.7796 24.8624 92.8326 24.7564C92.8856 24.6504 92.9386 24.5444 92.9916 24.4914L94.5547 22.001L95.535 22.6104L92.5677 27.3528L91.8258 26.8759L90.1832 21.7626C90.1567 21.6301 90.1037 21.5241 90.1037 21.4181C90.0772 21.3122 90.0507 21.2327 90.0507 21.1267C89.9712 21.2857 89.8918 21.4181 89.8123 21.5506C89.7328 21.6831 89.6798 21.7891 89.6003 21.895L87.9842 24.4649L87.0039 23.8821Z" fill="#DCC05F"/>
<path d="M30.8143 91.4684L28.1649 93.5614L27.582 92.7931L30.2314 90.7265L29.0657 89.2429L29.6221 88.7925L32.5629 92.5016L31.98 92.952L30.8143 91.4684Z" fill="#DCC05F"/>
<path d="M31.2383 97.0852L34.0731 94.1179L37.12 97.0058L36.6166 97.5356L34.2851 95.2837L33.6492 95.946L35.0269 97.2442L34.55 97.7741L33.1723 96.4494L32.457 97.1912L34.8415 99.4432L34.3116 100.026L31.2383 97.0852Z" fill="#DCC05F"/>
<path d="M41.7285 101.351L39.609 99.8936L38.1518 102.04L40.2713 103.497L40.7747 102.781L41.4636 103.497L41.1986 103.894C40.9867 104.212 40.7747 104.371 40.5893 104.398C40.4038 104.424 40.1389 104.345 39.8209 104.106L37.8074 102.728C37.4895 102.49 37.304 102.305 37.251 102.093C37.2245 101.907 37.304 101.642 37.516 101.351L38.7347 99.5756C38.9466 99.2577 39.1586 99.0987 39.344 99.0723C39.5295 99.0458 39.7944 99.1252 40.1124 99.3637L42.1259 100.741C42.4438 100.953 42.6293 101.165 42.6823 101.377C42.7088 101.563 42.6293 101.828 42.4173 102.119L42.2054 102.437L41.3311 102.013L41.7285 101.351Z" fill="#DCC05F"/>
<path d="M43.8203 106.491L45.5424 102.781L46.3902 103.179L45.7279 104.61L48.4303 105.855L49.0926 104.424L49.9669 104.822L48.2713 108.557L47.397 108.133L48.1388 106.544L45.41 105.298L44.6946 106.888L43.8203 106.491Z" fill="#DCC05F"/>
<path d="M56.2734 110.968L56.9358 106.915L60.4065 107.497C60.7244 107.55 60.9629 107.656 61.0689 107.789C61.2013 107.948 61.2278 108.16 61.1748 108.425L61.0159 109.378C60.9629 109.643 60.8569 109.829 60.6979 109.935C60.539 110.041 60.3005 110.067 59.9561 110.014L59.4262 109.935L61.0424 111.763L59.6912 111.525L58.3135 109.723L57.4127 109.564L57.1477 111.101L56.2734 110.968ZM59.8766 108.107L57.7571 107.762L57.5716 108.875L59.6912 109.22C59.8501 109.246 59.9826 109.246 60.0356 109.193C60.1151 109.167 60.1416 109.087 60.1681 108.955L60.2475 108.478C60.274 108.372 60.2475 108.266 60.1946 108.213C60.1416 108.186 60.0356 108.133 59.8766 108.107Z" fill="#DCC05F"/>
<path d="M64.168 108.875C64.168 108.504 64.221 108.239 64.3534 108.107C64.4859 107.974 64.7508 107.895 65.1482 107.895L68.1686 107.842C68.566 107.842 68.8309 107.895 68.9899 108.027C69.1224 108.16 69.2018 108.425 69.2018 108.796L69.2283 110.968C69.2283 111.339 69.1753 111.604 69.0429 111.736C68.9104 111.869 68.6455 111.948 68.2481 111.948L65.2277 112.001C64.8303 112.001 64.5654 111.948 64.4064 111.816C64.2739 111.683 64.1945 111.418 64.1945 111.048L64.168 108.875ZM65.1482 111.233L68.301 111.18L68.2481 108.584L65.0953 108.637L65.1482 111.233Z" fill="#DCC05F"/>
<path d="M72.938 111.604L72.2227 107.55L75.6934 106.941C76.0113 106.888 76.2497 106.915 76.4087 107.021C76.5677 107.127 76.6737 107.312 76.7266 107.577L76.8061 108.08C76.8326 108.266 76.8061 108.451 76.7001 108.584C76.5942 108.716 76.4352 108.822 76.2233 108.902C76.4617 108.902 76.6472 108.955 76.8061 109.061C76.9651 109.167 77.0446 109.326 77.0976 109.564L77.177 110.067C77.23 110.332 77.1505 110.544 76.9916 110.703C76.8061 110.862 76.5412 110.995 76.1173 111.048L72.938 111.604ZM75.4284 107.683L73.2824 108.054L73.4414 109.008L75.5874 108.637C75.7464 108.61 75.8523 108.557 75.9053 108.504C75.9583 108.451 75.9848 108.372 75.9583 108.266L75.8788 107.895C75.8523 107.789 75.8258 107.736 75.7464 107.683C75.7199 107.656 75.5874 107.656 75.4284 107.683ZM75.7199 109.326L73.5739 109.696L73.7593 110.73L75.9053 110.359C76.0908 110.332 76.1968 110.279 76.2497 110.226C76.3027 110.173 76.3292 110.067 76.3027 109.935L76.2497 109.617C76.2232 109.484 76.1703 109.405 76.1173 109.352C76.0113 109.299 75.8788 109.273 75.7199 109.326Z" fill="#DCC05F"/>
<path d="M79.6424 107.02C79.5099 106.676 79.5099 106.411 79.5894 106.226C79.6689 106.04 79.9073 105.908 80.2782 105.749L83.1131 104.742C83.484 104.609 83.7755 104.583 83.9344 104.662C84.1199 104.742 84.2523 104.954 84.3848 105.325L85.1002 107.365C85.2326 107.709 85.2591 107.974 85.1531 108.16C85.0737 108.345 84.8352 108.478 84.4643 108.636L81.6294 109.643C81.2585 109.776 80.9671 109.802 80.8081 109.723C80.6227 109.643 80.4902 109.431 80.3577 109.06L79.6424 107.02ZM81.338 108.901L84.3053 107.842L83.431 105.404L80.4637 106.464L81.338 108.901Z" fill="#DCC05F"/>
<path d="M88.8622 102.808L90.4783 105.749L89.6305 106.199L88.0144 103.258L86.3718 104.159L86.0273 103.523L90.1604 101.245L90.5048 101.88L88.8622 102.808Z" fill="#DCC05F"/>
<path d="M92.8412 99.5549L92.0703 100.116L94.4882 103.436L95.2591 102.874L92.8412 99.5549Z" fill="#DCC05F"/>
<path d="M98.3444 95.7607L96.4633 97.5358L98.2384 99.4168L100.119 97.6417L99.5101 97.0059L100.331 96.5025L100.676 96.8469C100.941 97.1119 101.047 97.3503 101.047 97.5623C101.047 97.7477 100.888 97.9862 100.596 98.2511L98.8213 99.9202C98.5298 100.185 98.2914 100.318 98.1059 100.318C97.9205 100.318 97.682 100.185 97.4171 99.8937L95.9334 98.3306C95.6685 98.0656 95.5625 97.8272 95.5625 97.6417C95.5625 97.4563 95.7215 97.2178 96.0129 96.9264L97.788 95.2573C98.0794 94.9923 98.3179 94.8599 98.5033 94.8599C98.6888 94.8599 98.9272 94.9923 99.1922 95.2838L99.4571 95.5752L98.8743 96.3435L98.3444 95.7607Z" fill="#DCC05F"/>
<path d="M103.168 90.0643L101.525 92.1838L102.214 92.7137L103.777 90.6736C104.016 90.3557 104.254 90.1702 104.44 90.1437C104.625 90.1173 104.89 90.2232 105.182 90.4352L105.632 90.7796C105.923 91.0181 106.082 91.23 106.109 91.4155C106.135 91.6009 106.029 91.8659 105.791 92.1838L104.254 94.1973C104.016 94.5153 103.777 94.7007 103.592 94.7272C103.406 94.7537 103.141 94.6477 102.85 94.4358L102.771 94.3563L103.141 93.588L103.539 93.8794L105.288 91.5744L104.546 91.018L102.983 93.0581C102.744 93.376 102.532 93.535 102.32 93.5615C102.135 93.588 101.87 93.482 101.578 93.27L101.207 93.0051C100.916 92.7667 100.757 92.5547 100.731 92.3692C100.704 92.1838 100.81 91.9188 101.048 91.6009L102.453 89.7463C102.691 89.4284 102.903 89.2694 103.089 89.243C103.274 89.2165 103.512 89.2959 103.777 89.5079L103.857 89.5609L103.512 90.3557L103.168 90.0643Z" fill="#DCC05F"/>
<path d="M109.872 82.222L108.256 83.2553L108.706 81.4007L107.223 80.1555L109.157 80.023L109.872 78.2214L110.587 80.023L112.521 80.1555L111.038 81.4007L111.515 83.2553L109.872 82.222Z" fill="#DCC05F"/>
<path d="M112.52 70.7501L110.878 71.7834L111.355 69.9023L109.871 68.6571L111.805 68.5246L112.52 66.7495L113.236 68.5246L115.17 68.6571L113.686 69.9023L114.163 71.7834L112.52 70.7501Z" fill="#DCC05F"/>
<path d="M23.7666 82.222L22.124 83.2553L22.6009 81.4007L21.1172 80.1555L23.0513 80.023L23.7666 78.2214L24.4819 80.023L26.416 80.1555L24.9323 81.4007L25.4092 83.2553L23.7666 82.222Z" fill="#DCC05F"/>
<path d="M20.5049 70.7501L18.8622 71.7834L19.3391 69.9023L17.8555 68.6571L19.7895 68.5246L20.5049 66.7495L21.2202 68.5246L23.1543 68.6571L21.6706 69.9023L22.1475 71.7834L20.5049 70.7501Z" fill="#DCC05F"/>
<path d="M13.2757 46.5877C11.6065 52.0719 10.7322 57.9271 10.8647 63.9678C11.4741 94.118 36.2725 118.439 66.4492 118.466C97.1557 118.492 122.14 93.5351 122.14 62.8285C122.14 57.3178 121.318 51.9925 119.835 46.9586C119.702 46.4817 119.066 46.3757 118.775 46.7731C118.669 46.9321 118.642 47.1176 118.695 47.303C120.259 52.5753 121.053 58.1656 120.947 63.9678C120.338 93.4821 96.043 117.274 66.5551 117.274C36.4844 117.3 12.0569 92.8727 12.0569 62.855C12.0569 57.3178 12.8782 51.9925 14.4149 46.9586C14.4679 46.7996 14.4414 46.6142 14.3619 46.4817C14.097 46.0048 13.4346 46.0843 13.2757 46.5877Z" fill="#B5862E"/>
<path d="M24.7731 59.7286L39.2653 41.6597L7.71094 30.1877L17.1958 46.614L21.1964 41.6332L22.2562 42.4545L17.9111 47.8593L24.7731 59.7286Z" fill="#B5862E"/>
<path d="M45.8877 35.3805L0 16.8347L6.72948 28.4921L40.1649 40.6528L45.8877 35.3805Z" fill="#DCC05F"/>
<path d="M50.312 45.8192L46.8148 36.2019L41.0391 41.5272L44.6687 47.8063L50.312 45.8192Z" fill="#DCC05F"/>
<path d="M81.9982 46.8792L76.62 49.0517L70.8707 37.0234C70.7913 36.8644 70.7118 36.7055 70.6323 36.573L73.1757 33.5792H67.1086C66.8701 33.5527 66.7377 33.5792 66.7377 33.5792H60.1672C52.5369 33.5792 53.8086 38.3216 53.8086 38.3216C58.7365 36.1756 60.1672 40.4676 60.1672 40.4676L56.1401 48.9987L50.9472 46.9057L45.6484 48.7867L62.3662 57.2913L65.6779 72.8433H67.2676L70.5793 57.2913L87.297 48.7867L81.9982 46.8792ZM62.7636 36.626C61.2799 36.626 61.3859 35.1158 61.3859 35.1158H64.9626C64.9626 35.1423 63.4259 36.626 62.7636 36.626Z" fill="#DCC05F"/>
<path d="M86.1847 36.2019L82.6875 45.8192L88.3307 47.8063L91.9604 41.5272L86.1847 36.2019Z" fill="#DCC05F"/>
<path d="M87.1094 35.3805L92.8321 40.6528L126.268 28.4921L132.997 16.8347L87.1094 35.3805Z" fill="#DCC05F"/>
<path d="M110.744 42.5075L111.803 41.6861L115.777 46.6405L125.289 30.1877L93.7344 41.6597L108.227 59.7551L115.062 47.8858L110.744 42.5075Z" fill="#B5862E"/>
<path d="M61.5448 59.4108L61.2798 58.1125L44.1117 49.3695L40.1376 42.5076L25.6719 60.5765L49.3575 71.6245L61.5448 59.4108Z" fill="#B5862E"/>
<path d="M83.4797 71.704L107.324 60.5765L92.8586 42.5076L88.8845 49.3695L71.7164 58.1125L71.3984 59.6227L83.4797 71.704Z" fill="#B5862E"/>
<path d="M66.527 84.8713L58.2344 93.4819L66.5005 100.927L75.0581 93.2434L66.527 84.8713Z" fill="#B5862E"/>
<path d="M106.215 25.9748C106.029 25.9748 105.87 25.8953 105.738 25.7629C100.068 19.6692 92.9678 14.8738 85.2315 11.9595C79.1114 9.62802 72.6733 8.46228 66.0763 8.46228H65.361C58.552 8.54176 51.9815 9.86646 45.7554 12.4099C38.655 15.2977 32.111 19.7487 26.8122 25.339C26.5472 25.6039 26.1233 25.6304 25.8584 25.3655C25.5935 25.1005 25.5935 24.6766 25.8319 24.4117C31.2632 18.689 37.9927 14.1055 45.252 11.1647C51.6371 8.56826 58.3666 7.21706 65.308 7.11108H66.0498C72.8058 7.11108 79.4028 8.30332 85.6819 10.6878C93.6036 13.7081 100.889 18.583 106.692 24.8356C106.93 25.1005 106.93 25.5244 106.665 25.7894C106.559 25.9218 106.374 25.9748 106.215 25.9748Z" fill="#EF3340"/>
<path d="M106.216 26.1657C105.991 26.1657 105.779 26.0729 105.604 25.8981C99.924 19.7912 92.858 15.0355 85.1668 12.1371C79.097 9.82415 72.6749 8.65312 66.0779 8.65312H65.3625C58.5986 8.7326 52.0254 10.0547 45.8285 12.5875C38.7334 15.4727 32.2053 19.929 26.9515 25.4715C26.6044 25.8212 26.0533 25.8318 25.7248 25.5007C25.391 25.1668 25.3777 24.6343 25.6904 24.2846C31.1402 18.5433 37.8776 13.9466 45.182 10.9872C51.5565 8.39613 58.3284 7.02639 65.3069 6.92041H66.0514C72.8524 6.92041 79.4785 8.12854 85.7523 10.5103C93.7588 13.5625 101.047 18.4718 106.834 24.7058C107.149 25.0582 107.136 25.5907 106.802 25.9246C106.688 26.0703 106.463 26.1657 106.216 26.1657ZM66.0779 8.27161C72.7199 8.27161 79.1871 9.45324 85.3019 11.7821C93.0461 14.6991 100.162 19.4892 105.88 25.6331C105.981 25.7338 106.092 25.7842 106.216 25.7842C106.341 25.7842 106.463 25.7391 106.518 25.6702C106.717 25.4689 106.728 25.1589 106.553 24.9628C100.809 18.7738 93.5681 13.8963 85.6172 10.8654C79.3885 8.49945 72.8073 7.30192 66.054 7.30192H65.3122C58.384 7.4079 51.6598 8.76704 45.3277 11.3423C38.0737 14.2804 31.3813 18.8454 25.9739 24.5442C25.8016 24.735 25.8096 25.045 25.9977 25.2304C26.1832 25.4132 26.4825 25.4026 26.6812 25.2039C31.9695 19.6269 38.5426 15.1389 45.6881 12.2325C51.9274 9.68374 58.5483 8.35109 65.3625 8.27161H66.0805H66.0779Z" fill="#B5862E"/>
<path d="M106.214 25.9805C106.034 25.9805 105.857 25.909 105.724 25.7686C100.033 19.6564 92.9381 14.8769 85.2044 11.9493C79.1055 9.6231 72.6595 8.44146 66.0466 8.44146H65.3048C58.5435 8.54479 51.9571 9.87214 45.7389 12.3944C38.567 15.3034 32.1925 19.6537 26.7904 25.3235C26.5361 25.591 26.1122 25.6016 25.8446 25.3473C25.577 25.093 25.5664 24.6691 25.8207 24.4015C31.3553 18.594 37.8861 14.1377 45.2356 11.1545C51.6074 8.57128 58.358 7.20949 65.2942 7.10352H66.0466C72.8238 7.10352 79.4288 8.31164 85.6787 10.6988C93.6004 13.7005 100.87 18.594 106.702 24.8572C106.953 25.1274 106.937 25.5513 106.667 25.803C106.537 25.9222 106.376 25.9832 106.212 25.9832L106.214 25.9805Z" fill="#EF3340"/>
<path d="M106.216 25.9805C106.036 25.9805 105.858 25.909 105.726 25.7686C100.035 19.6564 92.9398 14.8769 85.2062 11.9493C79.1073 9.62313 72.6613 8.4415 66.0484 8.4415H65.3065C58.5453 8.54483 51.9588 9.87218 45.7407 12.3944C45.3989 12.5348 45.0095 12.3679 44.869 12.0261C44.7313 11.6844 44.8955 11.2949 45.2373 11.1545C51.6091 8.57132 58.3598 7.20953 65.2959 7.1062H66.0484C72.8255 7.1062 79.4305 8.31433 85.6804 10.7014C93.6021 13.7032 100.872 18.5967 106.703 24.8598C106.955 25.1301 106.939 25.554 106.669 25.8057C106.539 25.9249 106.378 25.9858 106.213 25.9858L106.216 25.9805Z" fill="#009739"/>
<path d="M106.214 25.9805C106.034 25.9805 105.856 25.909 105.724 25.7686C100.033 19.6564 92.9376 14.8769 85.204 11.9493C79.1051 9.62313 72.6591 8.4415 66.0462 8.4415H65.3044C64.9361 8.4415 64.6367 8.14212 64.6367 7.77385C64.6367 7.40558 64.9361 7.1062 65.3044 7.1062H66.0462C72.8234 7.1062 79.4283 8.31433 85.6783 10.7014C93.6 13.7032 100.87 18.5967 106.701 24.8598C106.953 25.1301 106.937 25.554 106.667 25.8057C106.537 25.9249 106.375 25.9858 106.211 25.9858L106.214 25.9805Z" fill="white"/>
<path d="M106.216 25.9804C106.035 25.9804 105.858 25.9089 105.725 25.7685C100.034 19.6563 92.9394 14.8768 85.2058 11.9492C84.8614 11.8194 84.6865 11.4325 84.8163 11.0881C84.9462 10.7437 85.333 10.5688 85.6774 10.6987C93.6018 13.7004 100.872 18.5965 106.7 24.8571C106.952 25.1273 106.936 25.5512 106.666 25.8029C106.536 25.9221 106.375 25.9831 106.21 25.9831L106.216 25.9804Z" fill="black"/>
<path d="M83.4572 85.6663L89.7893 79.9436L82.159 72.3133H82.1855L71.058 61.1858L68.3291 74.0884H66.501H64.673L61.8911 60.9739L43.0273 79.8111L48.856 85.0569L56.8572 76.2609L57.758 77.0822L49.7833 85.8783L57.3341 92.6607L66.501 83.1494L75.9594 92.4223L82.5299 86.4876L73.9724 77.0822L74.8997 76.2609L83.4572 85.6663Z" fill="#B5862E"/>
</g>
<defs>
<clipPath id="clip0_949_4780">
<rect width="133" height="124.707" fill="white" transform="translate(0 0.501221)"/>
</clipPath>
</defs>
</svg>
